<svg width="450" height="450" fill="none" xmlns="http://www.w3.org/2000/svg"><path d="M404.912 358.641h-29.808v.225h29.808v-.225zm-106.814 4.248h-7.821v.225h7.821v-.225zm76.105-12.6h-17.271v.225h17.271v-.225zm-288.117 1.512H47.215v.225h38.87v-.225zm13.716 0h-5.697v.225h5.697v-.225zm102.834 3.798h-84.312v.225h84.312v-.225z" fill="#EBEBEB"/><path d="M375.077 237.978h-135.27l.936-9.171h135.27l-.936 9.171z" fill="#FAFAFA"/><path d="M352.917 237.978H226.404l.936-9.171h126.513l-.936 9.171z" fill="#F0F0F0"/><path d="M376.589 241.371H225.686l1.647-16.137h150.894l-1.638 16.137zm-150.039-1.854h149.553l1.26-12.429H227.819l-1.269 12.429z" fill="#E6E6E6"/><path d="M231.435 237.078h-3.816l.774-7.371h3.816l-.774 7.371zm4.645 0h-3.816l.774-7.371h3.816l-.774 7.371zm4.644 0h-3.816l.774-7.371h3.816l-.774 7.371zm4.645 0h-3.816l.774-7.371h3.816l-.774 7.371zm4.642 0h-3.816l.774-7.371h3.816l-.774 7.371zm4.645 0h-3.816l.774-7.371h3.816l-.774 7.371zm4.644 0h-3.816l.774-7.371h3.816l-.774 7.371zm4.643 0h-3.816l.774-7.371h3.816l-.774 7.371zm4.644 0h-3.816l.774-7.371h3.816l-.774 7.371zm4.645 0h-3.816l.774-7.371h3.807l-.765 7.371zm4.645 0h-3.816l.774-7.371h3.816l-.774 7.371zm4.633 0h-3.807l.774-7.371h3.807l-.774 7.371zm4.645 0h-3.807l.774-7.371h3.807l-.774 7.371zm4.644 0h-3.807l.774-7.371h3.807l-.774 7.371zm4.645 0h-3.807l.774-7.371h3.807l-.774 7.371zm4.642 0h-3.807l.774-7.371h3.807l-.774 7.371zm4.645 0h-3.807l.774-7.371h3.807l-.774 7.371zm4.644 0h-3.807l.774-7.371h3.807l-.774 7.371zm4.643 0h-3.807l.765-7.371h3.816l-.774 7.371zm4.644 0h-3.807l.774-7.371h3.807l-.774 7.371zm4.645 0H320.5l.765-7.371h3.816l-.774 7.371zm4.644 0h-3.816l.774-7.371h3.816l-.774 7.371zm4.643 0h-3.807l.765-7.371h3.816l-.774 7.371zm4.646 0h-3.816l.774-7.371h3.816l-.774 7.371zm4.642 0h-3.816l.774-7.371h3.816l-.774 7.371zm4.645 0h-3.816l.774-7.371h3.816l-.774 7.371zm4.644 0h-3.816l.774-7.371h3.816l-.774 7.371zm42.957 3.996h-14.679l1.278-14.679h4.194l-.108 1.251h-2.943l-1.062 12.177h12.177l1.071-12.177h-3.006l.108-1.251h4.248l-1.278 14.679z" fill="#E6E6E6"/><path d="M389.054 233.73h-1.251l1.233-14.031h1.242l-1.224 14.031z" fill="#E6E6E6"/><path d="M393.255 222.723l-3.681-2.304-4.23 2.088-.477-1.107 4.869-2.412 4.248 2.664-.729 1.071z" fill="#E6E6E6"/><path d="M386.758 197.073h-135.27l.927-9.171h135.27l-.927 9.171z" fill="#FAFAFA"/><path d="M374.023 197.073H238.078l.936-9.171h135.945l-.936 9.171z" fill="#F0F0F0"/><path d="M388.26 200.466H237.357l1.647-16.128h150.894l-1.638 16.128zm-150.039-1.854h149.553l1.26-12.42H239.49l-1.269 12.42z" fill="#E6E6E6"/><path d="M243.11 196.173h-3.807l.765-7.371h3.816l-.774 7.371zm4.642 0h-3.807l.765-7.371h3.816l-.774 7.371zm4.644 0h-3.816l.774-7.371h3.816l-.774 7.371zm4.645 0h-3.816l.774-7.371h3.816l-.774 7.371zm4.644 0h-3.816l.774-7.371h3.816l-.774 7.371zm4.645 0h-3.816l.774-7.371h3.816l-.774 7.371zm4.642 0h-3.816l.774-7.371h3.816l-.774 7.371zm4.645 0h-3.816l.774-7.371h3.816l-.774 7.371zm4.644 0h-3.816l.774-7.371h3.816l-.774 7.371zm4.643 0h-3.816l.774-7.371h3.816l-.774 7.371zm4.644 0h-3.816l.774-7.371h3.816l-.774 7.371zm4.645 0h-3.816l.774-7.371h3.816l-.774 7.371zm4.645 0h-3.817l.774-7.371h3.816l-.773 7.371zm4.642 0h-3.816l.774-7.371h3.816l-.774 7.371zm4.645 0h-3.816l.774-7.371h3.807l-.765 7.371zm4.635 0h-3.807l.774-7.371h3.807l-.774 7.371zm4.654 0h-3.816l.774-7.371h3.807l-.765 7.371zm4.633 0h-3.807l.774-7.371h3.807l-.774 7.371zm4.645 0h-3.807l.774-7.371h3.807l-.774 7.371zm4.644 0h-3.807l.774-7.371h3.807l-.774 7.371zm4.643 0h-3.807l.774-7.371h3.807l-.774 7.371zm4.644 0h-3.807l.774-7.371h3.807l-.774 7.371zm4.645 0h-3.807l.765-7.371h3.816l-.774 7.371zm4.644 0h-3.807l.774-7.371h3.807l-.774 7.371zm4.643 0h-3.807l.765-7.371h3.816l-.774 7.371zm4.645 0h-3.807l.765-7.371h3.816l-.774 7.371zm4.644 0h-3.807l.765-7.371h3.816l-.774 7.371zm4.644 0h-3.816l.774-7.371h3.816l-.774 7.371zm4.644 0h-3.816l.774-7.371h3.816l-.774 7.371zm33.596 4.077h-14.679l1.278-14.679h4.194l-.117 1.251h-2.934l-1.071 12.186h12.186l1.071-12.186h-3.015l.117-1.251h4.248l-1.278 14.679z" fill="#E6E6E6"/><path d="M400.673 192.915h-1.251l1.233-14.031h1.242l-1.224 14.031z" fill="#E6E6E6"/><path d="M400.006 193.626l-4.455-2.412.675-1.107 3.861 2.097 4.086-2.313.549 1.071-4.716 2.664z" fill="#E6E6E6"/><path d="M62.731 165.555l-.108 1.233h110.448l.108-1.233H62.731z" fill="#F0F0F0"/><path opacity=".2" d="M173.179 165.555H62.731l-.108 1.233h110.448l.108-1.233z" fill="#F0F0F0"/><path d="M174.413 151.506H64.1l6.669-76.194h110.313l-6.669 76.194z" fill="#EBEBEB"/><path d="M67.123 181.548a5.102 5.102 0 01-3.857-1.66 5.082 5.082 0 01-1.3-3.992 6.3 6.3 0 016.147-5.652 5.102 5.102 0 013.857 1.66 5.09 5.09 0 011.3 3.992 6.3 6.3 0 01-6.147 5.652z" fill="#E0E0E0"/><path d="M118.431 160.875H63.279l.423-4.869h55.161l-.432 4.869z" fill="#EBEBEB"/><path d="M171.991 178.335h-21.303l.423-4.878h21.312l-.432 4.878z" fill="#E0E0E0"/><path d="M173.594 160.875h-4.869l.423-4.869h4.869l-.423 4.869zm-8.255 0h-4.878l.432-4.869h4.869l-.423 4.869zm-8.261 0h-4.869l.432-4.869h4.869l-.432 4.869z" fill="#EBEBEB"/><path opacity=".5" d="M181.485 70.623H98.748l.369-4.194h82.737l-.369 4.194z" fill="#F0F0F0"/><path d="M92.214 70.965H70.902l.432-4.87h21.312l-.432 4.87z" fill="#EBEBEB"/><path d="M117.037 95.913l19.593 15.489-22.302 15.489 2.709-30.978z" fill="#fff"/><path d="M166.15 145.98l-88.65 1.467.198-2.286h92.556l-4.104.819z" fill="#E0E0E0"/><path d="M161.343 147.447H68.328l.198-2.286h93.015l-.198 2.286z" fill="#fff"/><path d="M171.252 148.293H68.004l.396-4.023h103.203l-.351 4.023zm-102.744-.459h102.321l.27-3.096H68.778l-.27 3.096z" fill="#E0E0E0"/><path d="M224.999 393.804c96.374 0 174.501-4.561 174.501-10.188 0-5.627-78.127-10.188-174.501-10.188-96.374 0-174.501 4.561-174.501 10.188 0 5.627 78.127 10.188 174.501 10.188z" fill="#F5F5F5"/><path d="M363.221 350.928s-6.3-13.797.9-27.405 9.315-16.803 4.716-19.584c-4.599-2.781-6.723 10.881-6.723 10.881s-3.879-9.405-.675-19.242c3.204-9.837 5.211-25.866.837-27.585-4.374-1.719-.837 19.989-4.635 27.387a63.931 63.931 0 01-3.717-16.137c-.522-7.902.297-20.529-3.159-23.76-3.456-3.231-5.67-.999-2.277 16.443a182.01 182.01 0 013.411 31.617s-7.506-22.878-12.537-23.544c-5.031-.666-5.031 6.741-.72 13.167s12.6 17.937 13.986 23.859c0 0-8.235-17.217-15.642-11.934-7.407 5.283 6.444 15.669 12.6 19.431 6.156 3.762 10.413 27.315 10.413 27.315l3.222-.909z" fill="#EF4444"/><path opacity=".2" d="M363.221 350.928s-6.3-13.797.9-27.405 9.315-16.803 4.716-19.584c-4.599-2.781-6.723 10.881-6.723 10.881s-3.879-9.405-.675-19.242c3.204-9.837 5.211-25.866.837-27.585-4.374-1.719-.837 19.989-4.635 27.387a63.931 63.931 0 01-3.717-16.137c-.522-7.902.297-20.529-3.159-23.76-3.456-3.231-5.67-.999-2.277 16.443a182.01 182.01 0 013.411 31.617s-7.506-22.878-12.537-23.544c-5.031-.666-5.031 6.741-.72 13.167s12.6 17.937 13.986 23.859c0 0-8.235-17.217-15.642-11.934-7.407 5.283 6.444 15.669 12.6 19.431 6.156 3.762 10.413 27.315 10.413 27.315l3.222-.909z" fill="#000"/><path d="M358.199 356.58s6.156-13.887-1.233-27.378c-7.389-13.491-9.513-16.668-4.941-19.521 4.572-2.853 6.849 10.8 6.849 10.8s3.762-9.459.441-19.251c-3.321-9.792-5.499-25.83-1.116-27.63 4.383-1.8 1.08 19.98 4.968 27.324a63.934 63.934 0 003.519-16.2c.432-7.911-.54-20.52 2.88-23.805s5.652-1.089 2.466 16.407a182.316 182.316 0 00-3.033 31.707s7.2-22.986 12.249-23.724c5.049-.738 5.112 6.66.9 13.149-4.212 6.489-12.411 18.126-13.698 24.075 0 0 8.028-17.343 15.498-12.177 7.47 5.166-6.3 15.777-12.393 19.62-6.093 3.843-10.134 27.468-10.134 27.468l-3.222-.864z" fill="#EF4444"/><path d="M386.63 346.68h-50.868l4.113 36.396h42.633l4.122-36.396zM251.28 173.466l8.298-21.582H258.3l-8.874 21.582h1.854zm3.16.117l10.368-15.534-1.008-.225-10.827 15.426 1.467.333zm-39.331-.171l-8.289-21.582h1.278l8.874 21.582h-1.863zm-3.151.117l-10.368-15.534 1.008-.225 10.818 15.426-1.458.333zm22.842-2.475h-1.818l.486-24.525h.846l.486 24.525zm-19.349 2.358l.423.963h1.233l-.396-.963h-1.26z" fill="#263238"/><path d="M250.965 173.412l-.423.963h-1.233l.387-.963h1.269zm-38.674.054l.585 1.098h1.215l-1.044-1.287-.756.189zm41.842 0l-.576 1.098h-1.215l1.044-1.287.747.189zm-20.899-2.412l.009 1.962h1.296v-1.962h-1.305zm-14.795 8.964h-5.13v3.195h5.13v-3.195zm34.794 0h-5.129v3.195h5.129v-3.195z" fill="#263238"/><path d="M255.033 181.431l-11.133 1.206a97.764 97.764 0 01-21.276 0l-11.124-1.206v-6.912l9-1.179a98.812 98.812 0 0125.461 0l9.054 1.179.018 6.912z" fill="#EF4444"/><path d="M217.935 178.2a2.07 2.07 0 11-2.061-2.07 2.048 2.048 0 011.909 1.277c.103.252.154.521.152.793z" fill="#fff"/><path d="M215.874 179.424a1.233 1.233 0 100-2.466 1.233 1.233 0 000 2.466z" fill="#EF4444"/><path d="M227.565 178.2a.661.661 0 01-.657.648.645.645 0 01-.648-.648.657.657 0 01.648-.657.656.656 0 01.657.657zm2.322 0a.649.649 0 01-.648.648.657.657 0 01-.639-.648.657.657 0 01.657-.657.657.657 0 01.63.657zm2.313 0a.661.661 0 01-.657.648.653.653 0 01-.599-.4.652.652 0 01.14-.709.655.655 0 01.459-.196.656.656 0 01.657.657zm2.339 0a.641.641 0 01-.4.599.657.657 0 01-.905-.599.661.661 0 01.657-.657.655.655 0 01.648.657zm2.332 0a.659.659 0 01-1.302.128.656.656 0 111.302-.128zm2.332 0a.661.661 0 01-.657.657.657.657 0 11.657-.657zm2.321 0a.649.649 0 01-1.11.459.656.656 0 01-.195-.459.659.659 0 01.657-.657.659.659 0 01.648.657z" fill="#fff"/><path d="M177.525 249.3h19.755l-.459-2.142c-2.106-5.679-12.906-5.679-12.906-5.679-2.7.153-5.301 2.7-6.039 6.165l-.351 1.656z" fill="#EF4444"/><path d="M162.17 225.333h-18l2.367 20.754h19.854l-4.221-20.754z" fill="#263238"/><path d="M169.866 248.724h-.9v.234h-33.714v-2.871h31.113l-4.194-20.754h-18l-.999-8.802a2.262 2.262 0 012.25-2.151h15.444a2.268 2.268 0 012.268 2.151l6.732 32.193z" fill="#263238"/><path d="M166.366 246.087h-19.854l-2.178-19.116-.189-1.638h18.027l4.194 20.754z" fill="#EF4444"/><path opacity=".1" d="M144.982 232.245l-.837-6.912h20.808l1.449 6.912h-21.42z" fill="#000"/><path d="M114.3 246.699h-2.358a.433.433 0 01-.45-.414v-2.277a.44.44 0 01.139-.3.42.42 0 01.311-.114h1.692a.453.453 0 01.432.306l.666 2.277a.43.43 0 01-.432.522z" fill="#263238"/><path d="M117.54 246.699h-2.34a.433.433 0 01-.45-.414v-2.277a.421.421 0 01.04-.164.42.42 0 01.41-.25h1.692a.453.453 0 01.432.306l.666 2.277a.428.428 0 01-.095.373.44.44 0 01-.355.149z" fill="#263238"/><path d="M120.798 246.699h-2.358a.433.433 0 01-.45-.414v-2.277a.44.44 0 01.139-.3.42.42 0 01.311-.114h1.692a.453.453 0 01.432.306l.666 2.277a.43.43 0 01-.432.522z" fill="#263238"/><path d="M124.056 246.699h-2.358a.433.433 0 01-.45-.414v-2.277a.421.421 0 01.04-.164.42.42 0 01.41-.25h1.692a.453.453 0 01.432.306l.666 2.277a.42.42 0 01-.003.193.419.419 0 01-.087.172.42.42 0 01-.342.157zm3.249 0h-2.349a.43.43 0 01-.45-.414v-2.277a.421.421 0 01.04-.164.42.42 0 01.41-.25h1.692a.453.453 0 01.432.306l.666 2.277a.415.415 0 01-.004.195.424.424 0 01-.245.291.438.438 0 01-.192.036zm3.258 0h-2.349a.43.43 0 01-.45-.414v-2.277a.42.42 0 01.139-.3.42.42 0 01.311-.114h1.692a.448.448 0 01.432.306l.666 2.277a.443.443 0 01-.093.369.44.44 0 01-.348.153z" fill="#263238"/><path d="M133.822 246.699h-2.358a.441.441 0 01-.45-.414v-2.277a.442.442 0 01.45-.414h1.737a.448.448 0 01.432.306l.666 2.277a.43.43 0 01-.274.499.426.426 0 01-.203.023z" fill="#263238"/><path d="M137.079 246.699h-2.358a.44.44 0 01-.45-.414v-2.277a.443.443 0 01.45-.414h1.701a.449.449 0 01.432.306l.666 2.277a.428.428 0 01-.249.486.422.422 0 01-.192.036z" fill="#263238"/><path d="M140.337 246.699h-2.358a.439.439 0 01-.45-.414v-2.277a.443.443 0 01.45-.414h1.692a.45.45 0 01.441.306l.666 2.277a.428.428 0 01-.249.486.422.422 0 01-.192.036z" fill="#263238"/><path d="M143.595 246.699h-2.358a.439.439 0 01-.45-.414v-2.277a.443.443 0 01.45-.414h1.692a.45.45 0 01.441.306l.666 2.277a.428.428 0 01-.249.486.422.422 0 01-.192.036z" fill="#263238"/><path d="M146.853 246.699h-2.358a.443.443 0 01-.45-.414v-2.277a.443.443 0 01.45-.414h1.692a.45.45 0 01.441.306l.666 2.277a.428.428 0 01-.249.486.422.422 0 01-.192.036z" fill="#263238"/><path d="M150.111 246.699h-2.358a.441.441 0 01-.45-.414v-2.277a.442.442 0 01.45-.414h1.692a.454.454 0 01.441.306l.666 2.277a.428.428 0 01-.093.369.424.424 0 01-.348.153z" fill="#263238"/><path d="M153.369 246.699h-2.358a.441.441 0 01-.45-.414v-2.277a.438.438 0 01.45-.414h1.692a.454.454 0 01.441.306l.666 2.277a.443.443 0 01-.093.369.427.427 0 01-.348.153z" fill="#263238"/><path d="M156.599 246.699h-2.358a.439.439 0 01-.45-.414v-2.277a.443.443 0 01.45-.414h1.692a.45.45 0 01.441.306l.666 2.277a.428.428 0 01-.249.486.422.422 0 01-.192.036z" fill="#263238"/><path d="M159.884 246.699h-2.385a.441.441 0 01-.45-.414v-2.277a.441.441 0 01.45-.414h1.692a.452.452 0 01.441.306l.657 2.277a.426.426 0 01-.223.478.424.424 0 01-.182.044z" fill="#263238"/><path d="M162.261 246.942a1.891 1.891 0 01-1.962 1.8h-48.78a1.877 1.877 0 01-1.789-1.086 1.877 1.877 0 01-.173-.714 1.687 1.687 0 01.576-1.269 2.031 2.031 0 011.341-.522h48.825c.182 0 .363.025.54.072.395.085.751.301 1.009.612.258.312.403.702.413 1.107z" fill="#263238"/><path opacity=".2" d="M162.261 246.942a1.891 1.891 0 01-1.962 1.8h-48.78a1.877 1.877 0 01-1.789-1.086 1.877 1.877 0 01-.173-.714 1.687 1.687 0 01.576-1.269 2.031 2.031 0 011.341-.522h48.825c.182 0 .363.025.54.072.395.085.751.301 1.009.612.258.312.403.702.413 1.107z" fill="#fff"/><path d="M162.26 246.942a1.89 1.89 0 01-1.962 1.8h-16.515a1.801 1.801 0 01-1.368-1.71 1.255 1.255 0 010-.324c.071-.368.265-.701.549-.945.126-.115.265-.215.414-.297l.234-.108c.24-.083.493-.126.747-.126h16.443a1.802 1.802 0 011.458 1.71zm34.598-79.902h-4.986l-5.571 60.795h4.977a1.8 1.8 0 001.656-1.728l5.283-57.339a1.464 1.464 0 00-.287-1.173 1.451 1.451 0 00-1.072-.555z" fill="#263238"/><path d="M189.144 227.835h-74.7a1.46 1.46 0 01-1.332-1.728l5.283-57.339a1.798 1.798 0 011.656-1.728h74.7a1.46 1.46 0 011.332 1.728l-5.283 57.339a1.798 1.798 0 01-1.656 1.728z" fill="#EF4444"/><path opacity=".2" d="M189.144 227.835h-74.7a1.46 1.46 0 01-1.332-1.728l5.283-57.339a1.798 1.798 0 011.656-1.728h74.7a1.46 1.46 0 011.332 1.728l-5.283 57.339a1.798 1.798 0 01-1.656 1.728z" fill="#fff"/><path d="M186.894 215.64h-67.851l3.762-43.011h67.851l-3.762 43.011z" fill="#EF4444"/><path d="M185.958 219.006h-66.861a3.126 3.126 0 01-1.279-.255 3.113 3.113 0 01-1.853-3.183L119.7 172.8a3.818 3.818 0 013.735-3.429h66.852a3.094 3.094 0 013.141 3.429l-3.744 42.741a3.815 3.815 0 01-3.726 3.465z" fill="#263238"/><path d="M186.894 215.64h-67.851l3.762-43.011h67.851l-3.762 43.011z" fill="#EF4444"/><path opacity=".4" d="M186.894 215.64h-67.851l3.762-43.011h67.851l-3.762 43.011z" fill="#fff"/><path d="M138.248 188.208h-8.586l.747-8.586h2.457l-.072.729h-1.719l-.621 7.128h7.128l.621-7.128h-1.755l.063-.729h2.484l-.747 8.586z" fill="#EF4444"/><path d="M134.704 183.915h-.729l.72-8.208h.729l-.72 8.208z" fill="#EF4444"/><path d="M134.316 184.329l-2.601-1.404.387-.648 2.259 1.224 2.394-1.35.324.63-2.763 1.548z" fill="#EF4444"/><path d="M168.74 183.393l-1.269 4.5h-1.377l.576-2.034-1.404 1.638h-.657l-.549-1.611-.576 2.007h-1.377l1.287-4.5h1.224l.765 2.376 2.07-2.376h1.287zm3.952 2.529a2.14 2.14 0 01-2.034 1.998.98.98 0 01-1.008-.522l-.126.459h-1.368l1.359-4.734H171l-.423 1.485c.252-.209.573-.318.9-.306a1.359 1.359 0 011.215 1.62zm-1.467.072a.446.446 0 00-.468-.549c-.378 0-.657.306-.702.792a.452.452 0 00.468.549c.378 0 .657-.315.702-.792zm5.931-.072a2.131 2.131 0 01-2.034 1.998 1.022 1.022 0 01-.954-.432l-.468 1.611h-1.44l1.359-4.734h1.359l-.09.324a1.41 1.41 0 01.972-.387 1.354 1.354 0 011.282 1.035c.047.192.052.391.014.585zm-1.467.072a.452.452 0 00-.468-.549c-.378 0-.657.306-.702.792a.446.446 0 00.468.549c.378 0 .657-.315.702-.792zm1.34 1.611l.585-.981c.359.208.765.316 1.179.315.324 0 .441-.072.45-.162 0-.306-1.8 0-1.665-1.152.081-.9.99-1.323 2.079-1.323a3.28 3.28 0 011.341.261l-.585.99a1.867 1.867 0 00-1.008-.261c-.333 0-.45.09-.459.171 0 .315 1.755 0 1.656 1.152-.081.9-.999 1.305-2.07 1.305a3.188 3.188 0 01-1.503-.315zM165.878 204.3l-1.269 4.5h-1.368l.567-2.034-1.395 1.638h-.666l-.549-1.611-.576 2.007h-1.323l1.278-4.5h1.224l.765 2.376 2.079-2.376h1.233zm3.951 2.547a2.134 2.134 0 01-2.025 1.998.985.985 0 01-1.008-.522l-.135.459h-1.368l1.359-4.734h1.44l-.423 1.485c.254-.206.573-.314.9-.306a1.367 1.367 0 01.999.523 1.35 1.35 0 01.261 1.097zm-1.467.072a.464.464 0 00-.096-.392.452.452 0 00-.372-.157c-.369 0-.657.306-.702.792a.446.446 0 00.468.549.76.76 0 00.702-.792zm5.94-.072a2.145 2.145 0 01-.638 1.384 2.146 2.146 0 01-1.396.614 1.01 1.01 0 01-.954-.432l-.468 1.611h-1.44l1.359-4.734h1.35l-.09.324c.266-.25.617-.388.981-.387a1.366 1.366 0 011.024.51 1.358 1.358 0 01.272 1.11zm-1.467.072a.452.452 0 00-.263-.514.451.451 0 00-.205-.035c-.378 0-.666.306-.702.792a.452.452 0 00.468.549c.378 0 .666-.315.666-.792h.036zm1.343 1.611l.576-.981c.362.207.771.315 1.188.315.315 0 .432-.072.441-.162 0-.306-1.8 0-1.656-1.152.072-.9.99-1.323 2.079-1.323a3.32 3.32 0 011.341.261l-.585.99a1.883 1.883 0 00-1.017-.261c-.333 0-.45.09-.459.171 0 .315 1.755 0 1.656 1.152-.072.9-.99 1.305-2.061 1.305a3.16 3.16 0 01-1.503-.315zm-29.611-21.744h2.826l-.252 1.269h-5.094l.207-1.008 3.06-2.403c.765-.612.99-.963.99-1.404 0-.441-.333-.738-.99-.738a1.858 1.858 0 00-1.431.702l-1.044-.765a3.335 3.335 0 012.7-1.233c1.422 0 2.358.765 2.358 1.8 0 .801-.369 1.476-1.548 2.385l-1.782 1.395zm6.184-4.212l-.36 1.278h.396c1.683 0 2.52.693 2.52 1.845 0 1.512-1.287 2.475-3.114 2.475a3.78 3.78 0 01-2.466-.783l.747-1.143a2.79 2.79 0 001.8.612c.9 0 1.44-.351 1.44-.981 0-.477-.36-.765-1.305-.765h-1.8l1.098-3.789h4.113l-.261 1.251h-2.808zm8.746 3.204a2.425 2.425 0 01-1.695 2.295 2.426 2.426 0 01-1.005.099 2.53 2.53 0 01-2.7-2.763 3.977 3.977 0 011.104-2.989 3.975 3.975 0 012.946-1.214 3.6 3.6 0 011.872.459l-.702 1.143a2.351 2.351 0 00-3.04.548c-.235.294-.396.64-.47 1.009a2.249 2.249 0 011.548-.531 1.974 1.974 0 011.493.507 1.982 1.982 0 01.649 1.437zm-1.53.135c0-.576-.441-.9-1.071-.9a1.092 1.092 0 00-.84.265 1.11 1.11 0 00-.375.797.99.99 0 00.344.718.977.977 0 00.763.227 1.078 1.078 0 001.179-1.107zm-15.29 16.002l-1.35 6.732h-1.557l1.098-5.481H139.5l.252-1.251h2.925zm6.273 5.319h-1.098l-.279 1.413h-1.521l.288-1.413h-3.6l.207-1.044 3.96-4.275h1.701l-3.69 4.05h1.8l.252-1.26h1.449l-.252 1.26h1.107l-.324 1.269zm6.632 0h-1.107l-.279 1.413h-1.521l.288-1.413h-3.6l.207-1.044 3.96-4.275h1.701l-3.69 4.05h1.8l.252-1.26h1.449l-.243 1.26h1.098l-.315 1.269z" fill="#fff"/><path d="M135.566 208.539h-8.586l.756-8.595h2.448l-.063.729h-1.719l-.63 7.128h7.128l.63-7.128h-1.764l.063-.729h2.493l-.756 8.595z" fill="#EF4444"/><path d="M132.021 204.237h-.738l.72-8.208h.729l-.711 8.208z" fill="#EF4444"/><path d="M134.477 197.802l-2.16-1.35-2.475 1.224-.27-.648 2.844-1.413 2.484 1.557-.423.63z" fill="#EF4444"/><path opacity=".1" d="M165.05 169.416l-13.257 49.563h4.455l13.113-49.563h-4.311zm6.878 0l-13.248 49.563h8.838l13.104-49.563h-8.694z" fill="#fff"/><path d="M129.041 259.317h5.958l9.603 113.706a2.169 2.169 0 01-2.169 2.358 2.167 2.167 0 01-2.16-1.962l-11.232-114.102zm144.1-.792h5.994l9.603 114.498a2.173 2.173 0 01-.568 1.654 2.17 2.17 0 01-3.761-1.258l-11.268-114.894z" fill="#263238"/><path d="M277.352 258.525H98.504v20.169h178.848v-20.169z" fill="#EF4444"/><path opacity=".3" d="M245.933 258.678l-.693 19.998 32.112.018v-20.169l-31.419.153z" fill="#000"/><path opacity=".2" d="M243.216 258.678H98.523v20.169h144.693v-20.169z" fill="#000"/><path d="M102.446 258.525h-5.994l-.153 122.274a2.174 2.174 0 001.343 2.015c.265.109.549.164.835.163a2.18 2.18 0 002.178-2.142l1.791-122.31zm144.099 0h-5.994l-.18 122.274a2.178 2.178 0 002.178 2.178 2.168 2.168 0 002.178-2.142l1.818-122.31z" fill="#263238"/><path opacity=".2" d="M96.452 258.525l-.153 122.274a2.174 2.174 0 001.343 2.015c.265.109.549.164.835.163a2.18 2.18 0 002.178-2.142l1.8-122.31h-6.003zm150.093 0h-5.994l-.18 122.274a2.178 2.178 0 002.178 2.178 2.168 2.168 0 002.178-2.142l1.818-122.31z" fill="#fff"/><path d="M91.467 253.683c0-2.7 1.008-4.923 2.259-4.932h188.1c1.251 0 2.259 2.214 2.259 4.932 0 2.7-1.008 4.914-2.259 4.923h-188.1c-1.251-.009-2.26-2.205-2.26-4.923z" fill="#263238"/><path opacity=".1" d="M91.467 253.683c0-2.7 1.008-4.923 2.259-4.932h188.1c1.251 0 2.259 2.214 2.259 4.932 0 2.7-1.008 4.914-2.259 4.923h-188.1c-1.251-.009-2.26-2.205-2.26-4.923z" fill="#fff"/><path d="M235.557 253.683c0-2.7 1.017-4.923 2.268-4.932h44.037c1.251 0 2.259 2.214 2.259 4.932 0 2.7-1.008 4.914-2.259 4.923h-44.037c-1.251-.009-2.259-2.205-2.268-4.923zm-43.856-12.834c-14.346 0-19.917-13.05-19.98-13.203l1.125-.468c.288.702 7.308 17.037 26.703 11.214 19.665-5.913 35.298-47.772 35.451-48.195l1.143.423c-.648 1.746-16.002 42.849-36.243 48.933a28.234 28.234 0 01-8.199 1.296z" fill="#263238"/><path d="M258.355 183.078H229.6v66.177h28.755v-66.177z" fill="#263238"/><path opacity=".3" d="M258.355 183.078H229.6v66.177h28.755v-66.177z" fill="#000"/><path d="M237.788 183.078h-28.755v66.177h28.755v-66.177z" fill="#263238"/><path d="M228.6 197.19a5.888 5.888 0 01-3.635 5.439 5.887 5.887 0 01-5.514-10.337 5.881 5.881 0 013.272-.988 5.87 5.87 0 015.432 3.634c.295.714.446 1.479.445 2.252z" fill="#fff"/><path d="M226.241 197.235a3.517 3.517 0 01-4.205 3.451 3.521 3.521 0 01-1.269-6.377 3.517 3.517 0 014.443.438 3.519 3.519 0 011.031 2.488z" fill="#EF4444"/><path d="M225.657 213.039a2.941 2.941 0 01-5.83.569 2.943 2.943 0 115.83-.569z" fill="#fff"/><path d="M224.477 213.066a1.8 1.8 0 11-1.755-1.8 1.757 1.757 0 011.755 1.8z" fill="#EF4444"/><path d="M223.173 200.754h-.909v10.548h.909v-10.548z" fill="#fff"/><path opacity=".3" d="M235.682 221.409h-24.534v24.534h24.534v-24.534z" fill="#000"/><path d="M225.117 235.305a1.449 1.449 0 11-2.898 0 1.449 1.449 0 012.898 0z" fill="#263238"/><path d="M223.667 233.856c-.144-3.501 8.289-10.8 2.7-10.8-5.589 0-9.297 3.96-9.081 6.3.216 2.34 6.381 4.5 6.381 4.5zm.019 3.006c-3.366.963-12.429-5.535-11.115-.063s6.03 8.1 8.226 7.362c2.196-.738 2.889-7.299 2.889-7.299zm1.548-2.331c2.862 2.025 3.483 13.158 6.912 8.703s2.547-9.783.585-11.025c-1.962-1.242-7.497 2.322-7.497 2.322z" fill="#263238"/><path d="M228.331 142.713a7.356 7.356 0 015.131-2.353 7.379 7.379 0 015.291 1.966l.243.243a1.504 1.504 0 002.124-2.124 10.396 10.396 0 00-14.706-.072l-.198.198c-1.332 1.386.774 3.519 2.124 2.124l-.009.018zm-9.046-12.393a21.805 21.805 0 0114.292-5.715 21.21 21.21 0 0114.58 5.58c1.404 1.314 3.528-.783 2.124-2.124a24.303 24.303 0 00-16.677-6.444c-6.228 0-11.763 2.547-16.416 6.579-1.449 1.269.657 3.393 2.124 2.124h-.027z" fill="#EF4444"/><path d="M222.849 137.187a14.643 14.643 0 0120.7-1.116c.288.252.567.531.837.81 1.35 1.386 3.474-.729 2.124-2.124a17.625 17.625 0 00-19.125-4.252 17.64 17.64 0 00-5.805 3.694c-.279.279-.558.558-.819.846-1.305 1.413.792 3.546 2.124 2.124l-.036.018z" fill="#EF4444"/><path d="M149.715 369.387l8.091-2.412-2.448-19.116-9.954 3.537 4.311 17.991z" fill="#FF8B7B"/><path opacity=".2" d="M144.287 346.068l10.503-3.906 1.575 13.752-9.324 2.61-2.754-12.456z" fill="#000"/><path d="M158.499 365.607l-9.225 2.493a.699.699 0 00-.477.819l1.395 8.784a1.572 1.572 0 00.619 1.047 1.58 1.58 0 001.181.294c3.186-.9 4.689-1.566 8.739-2.7 2.493-.684 8.19-2.304 11.7-2.943 3.51-.639 2.781-4.725 1.242-4.833-6.903-.423-10.863-1.251-13.644-2.79a2.058 2.058 0 00-1.53-.171z" fill="#263238"/><path d="M164.259 366.12a1.125 1.125 0 000-1.116.708.708 0 00-.576-.432c-1.089-.144-3.051 1.989-3.267 2.241a.183.183 0 00-.031.103c0 .037.01.073.031.104a.188.188 0 00.171.117c.743.002 1.485-.074 2.214-.225a2.374 2.374 0 001.458-.792zm-.675-1.161a.36.36 0 01.27.225.727.727 0 01.054.711c-.297.477-1.368.738-2.916.846.819-.837 2.016-1.863 2.592-1.782z" fill="#EF4444"/><path d="M160.676 367.083c.693-.684 1.512-2.7 1.107-3.546a.74.74 0 00-.828-.414.894.894 0 00-.747.468c-.648.99.126 3.312.135 3.42.028.062.08.11.144.135h.09a.222.222 0 00.099-.063zm.324-3.6c.288 0 .423.081.432.198a4.027 4.027 0 01-.81 2.835 4.38 4.38 0 01-.09-2.7.563.563 0 01.369-.279l.099-.054z" fill="#EF4444"/><path d="M108.719 265.77s47.925 4.041 46.746 24.858c-.963 17.037-3.492 12.402 1.467 63.054l-12.051.666s-12.258-41.4-10.611-57.888c-13.5 0-44.424 1.179-48.924-11.007a54.291 54.291 0 01-3.195-19.305l26.568-.378z" fill="#263238"/><path d="M142.964 356.679l15.75-2.7-.252-6.966-16.308 3.627.81 6.039z" fill="#EF4444"/><path d="M180.972 371.889l7.623-3.618-5.337-18.513-9.297 5.013 7.011 17.118z" fill="#FF8B7B"/><path opacity=".2" d="M172.043 349.677l9.783-5.463 3.654 13.347-8.811 4.005-4.626-11.889z" fill="#000"/><path d="M189.072 366.813l-8.73 3.879a.71.71 0 00-.351.9l2.7 8.469a1.561 1.561 0 001.377 1.119c.21.017.421-.009.621-.075 3.015-1.413 4.392-2.268 8.226-3.969 2.367-1.053 7.749-3.528 11.106-4.689s2.025-5.094.495-4.968c-6.885.639-10.935.423-13.905-.675a2.113 2.113 0 00-1.539.009z" fill="#263238"/><path d="M194.841 366.444a1.132 1.132 0 00-.189-1.098.67.67 0 00-.63-.333c-1.107 0-2.7 2.43-2.889 2.7a.199.199 0 000 .207.175.175 0 00.082.07.178.178 0 00.107.011 10.553 10.553 0 002.16-.558 2.367 2.367 0 001.359-.999zm-.846-1.044a.368.368 0 01.306.189.698.698 0 01.153.693c-.207.513-1.233.9-2.745 1.269.675-.945 1.71-2.151 2.286-2.151z" fill="#EF4444"/><path d="M191.448 367.947c.585-.783 1.089-2.898.558-3.681a.769.769 0 00-.9-.279.98.98 0 00-.666.576c-.486 1.08.639 3.258.657 3.357a.226.226 0 00.162.108h.09a.207.207 0 00.099-.081zm-.225-3.6c.279-.072.432 0 .45.126a3.988 3.988 0 01-.36 2.925 4.38 4.38 0 01-.504-2.7.524.524 0 01.324-.324l.09-.027z" fill="#EF4444"/><path d="M122.985 265.77c.315 0 53.721 5.499 53.784 23.616.117 29.952 8.676 64.296 8.676 64.296l-10.557 5.229s-18.378-37.233-18.099-60.579c-14.697-4.221-52.704 2.862-57.195-9.315-3.681-9.954-1.692-23.247-1.692-23.247h25.083z" fill="#263238"/><path d="M173.195 360.423l14.148-6.363-1.134-5.796-14.922 5.157 1.908 7.002z" fill="#EF4444"/><path d="M99.216 201.843c-1.557 2.943-2.853 5.787-4.167 8.748-1.314 2.961-2.475 5.922-3.6 9a96.458 96.458 0 00-2.907 9.432 49.996 49.996 0 00-1.593 10.323 21.344 21.344 0 00.603 6.084 13.193 13.193 0 001.422 3.483 10.9 10.9 0 001.278 1.728l.387.423c.225.198.46.423.693.594a7.39 7.39 0 001.242.774c.646.326 1.325.582 2.025.765.554.146 1.116.257 1.683.333a22.41 22.41 0 002.907.144 41.293 41.293 0 005.166-.306 97.714 97.714 0 0018.801-4.374l-1.116-5.328c-6.102.414-12.33.9-18.171.846-1.458-.072-2.871-.072-4.185-.207a12.777 12.777 0 01-1.737-.306c-.468-.117-.9-.306-.729-.288.094.035.182.084.261.144.092.062.177.134.252.216a.992.992 0 01-.072-.171 3.597 3.597 0 01-.243-.9 13.092 13.092 0 01-.099-3.195 42.27 42.27 0 011.62-8.046c.801-2.835 1.8-5.58 2.835-8.37 1.035-2.79 2.196-5.571 3.429-8.343a290.656 290.656 0 013.78-8.154l-9.765-5.049z" fill="#FF8B7B"/><path d="M119.348 244.926l6.507-3.24 2.835 7.02s-7.56 2.7-9 .702l-.342-4.482zm11.565-1.683l2.664 4.734-4.887.675-2.835-7.011 5.058 1.602zm-12.347-29.538c1.215 3.051-.117-.405 1.224 2.547s2.7 5.859 4.086 8.766a168.872 168.872 0 009.558 17.208c.963 1.413 1.917 2.817 2.988 4.221.531.711 1.125 1.404 1.755 2.124.342.36.621.702 1.026 1.071l.576.558.324.306a8.16 8.16 0 003.132 1.656c.608.176 1.228.308 1.854.396 1.022.123 2.051.165 3.078.126a38.933 38.933 0 005.301-.531 97.59 97.59 0 0018.9-5.4l.045-6.732c-6.183.747-12.501 1.539-18.441 1.8a41.1 41.1 0 01-4.212-.054 10.655 10.655 0 01-1.674-.27 2.548 2.548 0 01-.513-.189c-.054 0 0-.072.261.09.094.053.179.12.252.198l-.09-.117-.27-.297c-.171-.171-.387-.459-.585-.693a34.203 34.203 0 01-1.197-1.611c-.792-1.143-1.566-2.403-2.331-3.681-1.53-2.565-2.952-5.283-4.347-8.037-1.395-2.754-2.7-5.562-4.05-8.397-2.628-5.634-2.601-5.049-5.04-10.737l-11.61 5.679z" fill="#FF8B7B"/><path d="M168.443 241.002l8.667-1.8 3.402 9.405s-9.999.999-11.844-1.719l-.225-5.886zm15.256.567l3.294 6.363-6.48.666-3.402-9.405 6.588 2.376z" fill="#FF8B7B"/><path d="M122.876 175.419a22.376 22.376 0 002.322 5.4c-1.134.837-2.862.162-2.862.162l.54-5.562z" fill="#A02724"/><path d="M123.469 180.648c-.218.071-.445.11-.675.117-1.683 0-3.096-1.737-3.141-3.951-.045-2.214 1.287-4.041 2.97-4.086a2.749 2.749 0 012.25 1.206c.583.797.898 1.758.9 2.745.036 1.863-.927 3.528-2.304 3.969zm-1.386-7.371c-1.17.369-2.016 1.8-1.98 3.528.045 1.962 1.251 3.537 2.7 3.501a1.65 1.65 0 00.549-.09c1.188-.378 2.016-1.863 1.98-3.528a4.281 4.281 0 00-.801-2.484 2.315 2.315 0 00-1.881-1.026 1.893 1.893 0 00-.567.099z" fill="#263238"/><path d="M100.97 181.161l4.716 4.923 6.435 6.705a7.688 7.688 0 00-1.125 2.565c-.576 2.007-1.062 3.483 3.294 5.4a2.625 2.625 0 011.629 2.322c0 1.242-.972 2.592-5.292 2.7a19.522 19.522 0 01-11.556-3.852c-1.647-1.161-1.485-2.232-.46-3.924 3.088-4.797 2.962-11.52 2.359-16.839z" fill="#FF8B7B"/><path d="M124.406 175.095c.054.657-.189 1.215-.531 1.242-.342.027-.666-.486-.711-1.143-.045-.657.18-1.224.522-1.251.342-.027.666.486.72 1.152z" fill="#263238"/><path d="M122.93 184.068a12.006 12.006 0 01-7.038 7.956 11.038 11.038 0 01-3.6.828c-1.51.078-3.02-.178-4.42-.75a10.288 10.288 0 01-3.68-2.562c-4.095-4.347-3.825-9.243-4.095-17.586a11.703 11.703 0 01.9-4.941 11.618 11.618 0 0115.102-6.246c8.1 3.42 8.838 15.822 6.831 23.301z" fill="#FF8B7B"/><path opacity=".2" d="M115.892 192.024a11.044 11.044 0 01-3.6.828l-.144-.054.792-1.557s.459 1.359 2.952.783z" fill="#000"/><path d="M113.728 172.262l-.121.433 12.427 3.453.12-.433-12.426-3.453z" fill="#263238"/><path d="M116.099 177.192c-1.458 2.466-3.24 4.878-3.6 7.722-.171 1.188-9.225 2.961-11.394.693a19.802 19.802 0 01-4.383-8.253 21.385 21.385 0 01-.603-11.448 10.116 10.116 0 013.465-5.607 6.142 6.142 0 016.3-.783 13.257 13.257 0 0120.475 12.249c.004.289-.095.569-.279.792a1.327 1.327 0 01-1.035.18l-5.148-.621c-.648-.072-1.44-.288-1.557-.9-.072-.405-.504-2.502-.522-2.808l-1.719 8.784z" fill="#263238"/><path d="M110.457 176.4a7.631 7.631 0 002.943 4.59c1.953 1.413 3.915-.594 3.906-2.961 0-2.133-1.422-5.076-3.6-5.544-2.178-.468-3.708 1.638-3.249 3.915z" fill="#FF8B7B"/><path d="M103.301 155.88a2.771 2.771 0 012.7 1.8c.252.639.495 2.196-.225 2.529a23.788 23.788 0 00-2.475-4.329z" fill="#263238"/><path d="M85.139 201.879c.72-1.908 4.059-3.825 6.12-3.825h1.359a74.75 74.75 0 018.19.531 145.762 145.762 0 0116.2 2.7c2.466.657 4.851 1.476 6.741 2.187 2.412.954 3.825 1.593 3.825 1.593s-2.637 17.577-4.005 35.028c-.756 9.711-.45 19.359-.684 25.992H82.151c-1.413-7.965-1.188-14.922-1.305-29.313-.063-8.622 1.34-27.027 4.293-34.893z" fill="#EF4444"/><path opacity=".2" d="M124.497 230.4c-.306 3.663-.621 7.506-.954 11.349-4.779-6.984-7.434-26.1-7.434-26.1l8.388 14.751z" fill="#000"/><path d="M129.923 206.379c5.841 3.285 11.565 20.115 11.565 20.115l-13.374 10.089c-5.103-4.824-12.6-16.803-13.383-21.6-1.332-7.344 5.868-13.842 15.192-8.604z" fill="#EF4444"/><path d="M141.461 385.776a4.153 4.153 0 002.579 3.828 4.162 4.162 0 004.525-.912 4.158 4.158 0 10-7.104-2.934v.018zm-62.028 0a4.159 4.159 0 110-.018v.018zm35.065-1.332a4.159 4.159 0 11-8.317-.001 4.159 4.159 0 018.317.001zm-2.898-5.13v-8.046h11.907c2.337.007 4.668.227 6.966.657l22.212 4.275a2.014 2.014 0 01-.45 3.996l-40.635-.882zm0 0v-8.046H99.71a37.591 37.591 0 00-6.965.657l-24.93 3.978a2.024 2.024 0 00-1.593 2.367 2.007 2.007 0 002.043 1.629l43.335-.585z" fill="#263238"/><path d="M119.015 331.263h-14.751v42.453h14.751v-42.453z" fill="#263238"/><path d="M116.883 304.362h-10.512v27.108h10.512v-27.108z" fill="#263238"/><path opacity=".5" d="M116.892 309.384l-10.521 2.655v-7.677h10.521v5.022z" fill="#000"/><path d="M150.965 265.626h-5.346v22.797h5.346v-22.797z" fill="#EF4444"/><path opacity=".7" d="M150.965 265.626h-5.346v22.797h5.346v-22.797z" fill="#fff"/><path d="M118.8 304.362v-99.108a13.043 13.043 0 00-4.446-9.801l-7.065-6.183a12.988 12.988 0 00-8.568-3.222H73.233l-12.465 13.266v105.048H118.8z" fill="#EF4444"/><path d="M156.825 285.183H98.613v19.179h67.698a6.879 6.879 0 003.459-.933 6.88 6.88 0 002.463-9.462 17.898 17.898 0 00-15.408-8.784z" fill="#EF4444"/><path opacity=".7" d="M60.758 199.323v105.039H166.31a6.888 6.888 0 006.887-6.935 6.892 6.892 0 00-.956-3.451 17.878 17.878 0 00-15.381-8.784h-29.322a8.697 8.697 0 01-6.181-2.54 8.695 8.695 0 01-2.558-6.172v-71.235a13.005 13.005 0 00-4.446-9.783l-7.065-6.192a13.001 13.001 0 00-8.577-3.213H73.23l-12.473 13.266z" fill="#fff"/><path d="M110.339 304.362v-99.108a13.022 13.022 0 00-4.446-9.801l-7.055-6.183a13.028 13.028 0 00-8.578-3.222H70.37a13.013 13.013 0 00-9.486 4.104l-5.084 5.4a13.003 13.003 0 00-3.528 8.91v90a9.9 9.9 0 009.9 9.9h48.167z" fill="#EF4444"/><path opacity=".5" d="M110.339 304.362v-99.108a13.022 13.022 0 00-4.446-9.801l-7.055-6.183a13.028 13.028 0 00-8.578-3.222H70.37a13.013 13.013 0 00-9.486 4.104l-5.084 5.4a13.003 13.003 0 00-3.528 8.91v90a9.9 9.9 0 009.9 9.9h48.167z" fill="#fff"/><path d="M130.148 272.583a55.122 55.122 0 0136.324 0 5.15 5.15 0 006.39-2.439c1.089-2.304-.369-5.283-3.33-6.3a64.337 64.337 0 00-42.426 0c-2.961 1.035-4.428 4.023-3.339 6.3a5.17 5.17 0 006.381 2.439z" fill="#EF4444"/><path opacity=".7" d="M130.148 272.583a55.122 55.122 0 0136.324 0 5.15 5.15 0 006.39-2.439c1.089-2.304-.369-5.283-3.33-6.3a64.337 64.337 0 00-42.426 0c-2.961 1.035-4.428 4.023-3.339 6.3a5.17 5.17 0 006.381 2.439z" fill="#fff"/><path d="M398.961 129.715v-.268c.009.089.009.179 0 .268zM282.403 92.7a64.791 64.791 0 00-19.467 28.359l-4.59-.261a76.194 76.194 0 0115.3-34.2l8.757 6.102z" fill="#EF4444"/><path opacity=".6" d="M282.403 92.7a64.791 64.791 0 00-19.467 28.359l-4.59-.261a76.194 76.194 0 0115.3-34.2l8.757 6.102z" fill="#fff"/><path d="M309.6 78.912A64.866 64.866 0 00282.402 92.7l-8.802-6.057a80.448 80.448 0 0129.448-23.355l6.552 15.624z" fill="#EF4444"/><path opacity=".5" d="M309.6 78.912A64.866 64.866 0 00282.402 92.7l-8.802-6.057a80.448 80.448 0 0129.448-23.355l6.552 15.624z" fill="#fff"/><path d="M338.832 56.376l-3.222 22.275a56.995 56.995 0 00-9.657-1.251 60.202 60.202 0 00-16.353 1.512l-6.561-15.624a74.647 74.647 0 0134.713-6.966l1.08.054z" fill="#EF4444"/><path opacity=".4" d="M338.832 56.376l-3.222 22.275a56.995 56.995 0 00-9.657-1.251 60.202 60.202 0 00-16.353 1.512l-6.561-15.624a74.647 74.647 0 0134.713-6.966l1.08.054z" fill="#fff"/><path d="M371.917 67.383L356.401 88.2a52.648 52.648 0 00-20.79-9.549l3.222-22.275a65.699 65.699 0 0133.084 11.007z" fill="#EF4444"/><path opacity=".3" d="M371.917 67.383L356.401 88.2a52.648 52.648 0 00-20.79-9.549l3.222-22.275a65.699 65.699 0 0133.084 11.007z" fill="#fff"/><path d="M393.975 93.663L370.62 104.85A51.294 51.294 0 00356.4 88.2l15.552-20.772a62.518 62.518 0 0122.023 26.235z" fill="#EF4444"/><path opacity=".2" d="M393.975 93.663L370.62 104.85A51.294 51.294 0 00356.4 88.2l15.552-20.772a62.518 62.518 0 0122.023 26.235z" fill="#fff"/><path d="M399.079 128.799l-22.293-1.26a53.095 53.095 0 00-6.165-22.689l23.355-11.187a66.276 66.276 0 015.103 35.136z" fill="#EF4444"/><path opacity=".1" d="M399.079 128.799l-22.293-1.26a53.095 53.095 0 00-6.165-22.689l23.355-11.187a66.276 66.276 0 015.103 35.136z" fill="#fff"/><path d="M399.007 129.447c.009.09.009.18 0 .27-.9 6.3-3.843 16.578-6.966 22.5l-17.865-4.887 1.755-6.831c.18-.9.324-1.8.45-2.7l.072-.549c.406-3.232.533-6.493.378-9.747l22.293 1.26c0 .126 0 .252-.045.378a1.404 1.404 0 01-.072.306zM260.019 144.9l-1.359.234a67.278 67.278 0 01-.828-5.283 70.022 70.022 0 01.126-16.452v-.261c.007-.094.022-.187.045-.279.099-.693.198-1.377.315-2.061l4.59.261a61.146 61.146 0 00-2.646 11.034v.27a3.245 3.245 0 000 .279 56.325 56.325 0 00-.432 6.669 52.388 52.388 0 00.189 5.589z" fill="#EF4444"/><path opacity=".7" d="M260.019 144.9l-1.359.234a67.278 67.278 0 01-.828-5.283 70.022 70.022 0 01.126-16.452v-.261c.007-.094.022-.187.045-.279.099-.693.198-1.377.315-2.061l4.59.261a61.146 61.146 0 00-2.646 11.034v.27a3.245 3.245 0 000 .279 56.325 56.325 0 00-.432 6.669 52.388 52.388 0 00.189 5.589z" fill="#fff"/><path d="M396.729 147.375l-2.088 4.653-3.834-1.044-35.595-9.756-15.3-4.203a19.276 19.276 0 002.853-4.401 18.375 18.375 0 001.674-5.868l33.804 13.32 18.486 7.299z" fill="#263238"/><path d="M344.413 126.756a19.094 19.094 0 01-4.5 10.269l-13.77-3.771 4.914-11.754 13.356 5.256z" fill="#263238"/><path d="M336.186 126.396a13.163 13.163 0 01-3.114 7.056 13.657 13.657 0 01-4.5 3.483c-6.3 3.006-13.428.612-15.948-5.4-2.52-6.012.549-13.275 6.84-16.299 6.291-3.024 13.437-.612 15.948 5.4a11.38 11.38 0 01.774 5.76zm32.067-11.07a.41.41 0 01-.258-.101.41.41 0 01-.138-.241 32.151 32.151 0 00-4.653-10.917.427.427 0 01.126-.585.433.433 0 01.594.126 32.979 32.979 0 014.761 11.214.42.42 0 01-.333.495l-.099.009zm-97.667-1.647a.42.42 0 01-.198-.054.425.425 0 01-.144-.585c.189-.315 19.35-31.77 50.499-31.833 15.228 0 29.502 6.201 39.15 17.1a.4.4 0 01.13.297.41.41 0 01-.13.297.403.403 0 01-.297.126.414.414 0 01-.297-.126 51.114 51.114 0 00-38.52-16.83c-30.672.063-49.581 31.113-49.77 31.428a.419.419 0 01-.423.18zm119.825 41.715h-.09l-5.193-1.494a.421.421 0 01-.288-.522.41.41 0 01.2-.257.417.417 0 01.322-.04l5.184 1.449a.423.423 0 01-.135.828v.036zm-8.973-2.52h-.099l-42.129-11.871a.421.421 0 01-.288-.522.43.43 0 01.357-.309.417.417 0 01.165.012l42.156 11.862a.423.423 0 01-.135.828h-.027z" fill="#EF4444"/></svg>