<svg width="450" height="450" fill="none" xmlns="http://www.w3.org/2000/svg"><path d="M66.304 352.728h-19.09v.225h19.09v-.225zm164.196-2.439h-76.473v.225H230.5v-.225zm-135.297 10.8H60.904v.225h34.3v-.225zm309.709-1.512h-38.871v.225h38.871v-.225zm-41.815 0h-10.773v.225h10.773v-.225zm-29.295-3.798h-20.7v.225h20.7v-.225zm-31.104 0h-43.596v.225h43.596v-.225z" fill="#EBEBEB"/><path d="M374.689 339.552h21.6V206.307h-21.6v133.245z" fill="#F0F0F0"/><path d="M256.401 344.142h137.673v-4.599H256.401v4.599z" fill="#F0F0F0"/><path d="M374.689 206.298H254.512v133.245h120.177V206.298z" fill="#F5F5F5"/><path d="M370.801 275.688H258.4v23.796h112.401v-23.796zm0 31.14H258.4v23.796h112.401v-23.796z" fill="#F0F0F0"/><path d="M268.921 277.488h91.359c.586 0 1.062-.475 1.062-1.062v-1.143c0-.586-.476-1.062-1.062-1.062h-91.359c-.587 0-1.062.476-1.062 1.062v1.143c0 .587.475 1.062 1.062 1.062zm0 31.14h91.359c.586 0 1.062-.475 1.062-1.062v-1.143c0-.586-.476-1.062-1.062-1.062h-91.359c-.587 0-1.062.476-1.062 1.062v1.143c0 .587.475 1.062 1.062 1.062z" fill="#F5F5F5"/><path d="M370.801 213.651H258.4v23.796h112.401v-23.796zm0 30.888H258.4v23.796h112.401v-23.796z" fill="#F0F0F0"/><path d="M268.921 215.451h91.359c.586 0 1.062-.475 1.062-1.062v-1.143c0-.586-.476-1.062-1.062-1.062h-91.359c-.587 0-1.062.476-1.062 1.062v1.143c0 .587.475 1.062 1.062 1.062zm0 30.897h91.359c.586 0 1.062-.475 1.062-1.062v-1.143c0-.586-.476-1.062-1.062-1.062h-91.359c-.587 0-1.062.476-1.062 1.062v1.143c0 .587.475 1.062 1.062 1.062z" fill="#F5F5F5"/><path d="M329.671 180.9a8.612 8.612 0 01-16.877 3.004 8.613 8.613 0 1116.877-3.004z" fill="#E0E0E0"/><path d="M315.001 186.57a6.446 6.446 0 01-3.478 6.259 6.433 6.433 0 01-3.68.67 6.443 6.443 0 117.158-6.929z" fill="#E0E0E0"/><path d="M301.786 191.904a8.37 8.37 0 00-.97-11.797 8.37 8.37 0 00-11.797.97 8.37 8.37 0 00.97 11.797 8.37 8.37 0 0011.797-.97zm35.715-5.334a6.446 6.446 0 01-3.478 6.259 6.433 6.433 0 01-3.68.67 6.443 6.443 0 01.21-12.824 6.448 6.448 0 014.697 1.506 6.429 6.429 0 012.251 4.389z" fill="#E0E0E0"/><path d="M294.454 186.57a6.438 6.438 0 01-3.477 6.259 6.437 6.437 0 01-7.114-.818 6.444 6.444 0 1110.591-5.441zm47.969-1.818a4.564 4.564 0 11-4.923-4.176 4.558 4.558 0 014.437 2.461c.273.534.439 1.117.486 1.715z" fill="#E0E0E0"/><path d="M355.312 185.112a6.445 6.445 0 11-12.56-1.439 6.448 6.448 0 015.603-4.456 6.457 6.457 0 016.957 5.895z" fill="#E0E0E0"/><path d="M362.701 186.624s-1.107 19.674-43.488 19.674-43.488-19.674-43.488-19.674h86.976zM84.6 165.87h113.176l-7.056 178.317H77.545L84.6 165.87z" fill="#F0F0F0"/><path d="M82.963 165.87H196.14l-7.056 178.317H75.898l7.065-178.317z" fill="#F5F5F5"/><path d="M109.801 198.558c13.923-20.205 48.978-10.17 53.784 10.179 4.806 20.349-9.9 68.085-39.222 61.947-29.322-6.138-40.527-34.479-14.562-72.126zm49.76 113.094c-7.146 6.696-19.962-.207-20.097-8.55-.135-8.343 9.657-25.713 20.574-20.808 10.917 4.905 12.852 16.893-.477 29.358z" fill="#FAFAFA"/><path d="M77.77 134.82h300.781V63.144H77.771v71.676z" fill="#E6E6E6"/><path d="M74.439 134.82h302.553V63.144H74.439v71.676z" fill="#F0F0F0"/><path d="M77.77 136.458h300.781v-1.638H77.771v1.638z" fill="#E6E6E6"/><path d="M68.869 136.458h302.553v-1.638H68.869v1.638z" fill="#F0F0F0"/><path d="M372.312 130.14V67.815H79.11v62.325h293.202z" fill="#FAFAFA"/><path d="M187.507 130.14l-13.014-62.325H154.18l13.014 62.325h20.313zm140.543 0l-13.005-62.325h-20.313l13.014 62.325h20.304z" fill="#fff"/><path d="M370.153 125.487a.332.332 0 00.333-.333V70.857a.34.34 0 00-.333-.333.332.332 0 00-.333.333v54.297a.335.335 0 00.023.129.334.334 0 00.182.181.33.33 0 00.128.023z" fill="#F0F0F0"/><path d="M162.838 130.14l-13.014-62.325h-7.92l13.014 62.325h7.92z" fill="#fff"/><path d="M79.705 130.14V67.815h-.594v62.325h.594z" fill="#E6E6E6"/><path opacity=".6" d="M73.332 74.862h300.78l.423-5.229H73.764l-.432 5.23z" fill="#EBEBEB"/><path opacity=".6" d="M73.332 77.814h300.78l.423-5.229H73.764l-.432 5.229z" fill="#EBEBEB"/><path opacity=".6" d="M73.332 80.766h300.78l.423-5.229H73.764l-.432 5.23z" fill="#EBEBEB"/><path opacity=".6" d="M73.332 83.718h300.78l.423-5.229H73.764l-.432 5.229z" fill="#EBEBEB"/><path opacity=".6" d="M73.332 86.67h300.78l.423-5.23H73.764l-.432 5.23z" fill="#EBEBEB"/><path opacity=".6" d="M73.332 89.622h300.78l.423-5.229H73.764l-.432 5.23z" fill="#EBEBEB"/><path d="M224.999 384.804c96.374 0 174.501-4.562 174.501-10.188 0-5.627-78.127-10.188-174.501-10.188-96.374 0-174.501 4.561-174.501 10.188 0 5.626 78.127 10.188 174.501 10.188z" fill="#F5F5F5"/><path d="M327.726 374.616H211.392a12.531 12.531 0 01-9.13-3.869 12.553 12.553 0 01-3.47-9.289l10.575-248.004a13.899 13.899 0 0113.716-13.158h116.334a12.546 12.546 0 019.134 3.866 12.54 12.54 0 013.467 9.292l-10.576 248.004a13.904 13.904 0 01-13.716 13.158z" fill="#5143D7"/><path d="M347.058 199.053h-.801a2.82 2.82 0 01-2.826-2.952l1.989-46.62a3.12 3.12 0 013.078-2.952h.801a2.797 2.797 0 012.044.869 2.814 2.814 0 01.773 2.083l-1.98 46.62a3.12 3.12 0 01-3.078 2.952z" fill="#5143D7"/><path d="M206.514 164.511h-2.025a2.206 2.206 0 01-1.62-.683 2.206 2.206 0 01-.612-1.648l.567-13.311a2.469 2.469 0 012.43-2.34h2.025a2.23 2.23 0 012.241 2.34l-.567 13.311a2.464 2.464 0 01-2.439 2.331zm-1.007 23.778h-2.034a2.23 2.23 0 01-1.617-.686 2.222 2.222 0 01-.615-1.645l.567-13.32a2.467 2.467 0 012.43-2.331h2.034a2.212 2.212 0 011.617.685 2.236 2.236 0 01.615 1.646l-.567 13.32a2.467 2.467 0 01-2.43 2.331z" fill="#263238"/><path d="M324.594 374.616H208.26a12.528 12.528 0 01-12.6-13.158l10.566-248.004a13.894 13.894 0 0113.716-13.158h116.343a12.542 12.542 0 0111.825 8.154c.596 1.598.86 3.301.775 5.004L338.31 361.458a13.898 13.898 0 01-13.716 13.158z" fill="#263238"/><path opacity=".6" d="M324.594 374.616H208.26a12.528 12.528 0 01-12.6-13.158l10.566-248.004a13.894 13.894 0 0113.716-13.158h116.343a12.542 12.542 0 0111.825 8.154c.596 1.598.86 3.301.775 5.004L338.31 361.458a13.898 13.898 0 01-13.716 13.158z" fill="#5143D7"/><path opacity=".5" d="M275.994 357.885a9.332 9.332 0 01-9.234 8.856 8.404 8.404 0 01-7.957-5.486 8.414 8.414 0 01-.512-3.37 9.317 9.317 0 019.225-8.847 8.41 8.41 0 018.478 8.847z" fill="#5143D7"/><path opacity=".8" d="M332.939 342.414H202.654a2.899 2.899 0 01-2.916-3.051l9.063-212.463a3.206 3.206 0 013.177-3.051h130.276a2.89 2.89 0 012.747 1.888 2.9 2.9 0 01.178 1.163l-9.054 212.463a3.216 3.216 0 01-3.186 3.051z" fill="#fff"/><path opacity=".5" d="M252.297 111.96a3.782 3.782 0 013.735-3.6 3.416 3.416 0 012.496 1.055 3.414 3.414 0 01.933 2.545 3.774 3.774 0 01-3.735 3.6 3.42 3.42 0 01-1.358-.268 3.413 3.413 0 01-1.869-1.963 3.396 3.396 0 01-.202-1.369zm16.119-3.591h29.79a3.415 3.415 0 013.221 2.234c.162.436.233.901.208 1.366a3.782 3.782 0 01-3.735 3.6h-29.79a3.414 3.414 0 01-3.224-2.232 3.411 3.411 0 01-.205-1.368 3.785 3.785 0 011.155-2.539 3.785 3.785 0 012.58-1.061z" fill="#5143D7"/><path d="M309.302 283.513c22.242-21.773 23.36-56.701 2.498-78.013-20.863-21.311-55.806-20.937-78.048.837-22.243 21.773-23.361 56.701-2.498 78.013 20.862 21.311 55.806 20.937 78.048-.837z" fill="#fff"/><path d="M281.007 236.025h.855l1.962-.99h1.53l1.314.612h1.44l.549-.315.036-.891-.792-.369-1.116-1.161.045-1.116h-.891l-.756.729-.999-1.053h-1.161l-1.899 3.141.414.756-.63.414.099.243zm11.529.846l-.045 1.089.963 1.017h1.989l.081-2.079h-.441l.081-1.953-.819-.855.054-1.35h.855l.054-1.188-1.242-.171-2.097 2.016-.045 1.116 1.152 1.215-.027.648-.513.495zm-68.39 29.529l-3.6-3.762.117-2.772 2.988-2.862.063-1.431-1.512-1.584h-2.988l.063-1.53-2.826-1.359a52.746 52.746 0 009.072 26.226l1.152-6.714-2.592-2.7.063-1.512z" fill="#5143D7"/><path d="M326.646 245.7l-2.988 1.332h-1.053l-1.116 1.071v.954l1.494 1.557-.081 1.935-2.331 1.485v-.585l-1.665-1.746h-1.017l-.099 2.205 1.8 2.457-.063 1.395.45.468h-.639l-1.26-1.62.045-1.188-.846-1.089.108-2.529-.54-2.529h-.306l-.576.558h-.531l.072-1.638-1.188-1.242v-.9h-.216l-.684.657h-1.386l-3.753 3.6-.09 2.034-1.116 1.953-.738-.333-1.116-2.745-.621-3.537-1.215-.468-2.016-3.132h-4.608l-.414-.477h-1.8l-1.368-.945-.378-1.224h-.9l-.423.315.837 2.313 1.449 1.8 1.557-1.494h.405l.225.675 1.404 1.242-1.08 1.269-.189.765-2.799 2.043-4.86 1.602-.261-2.754-1.647-2.106-.9-2.502-1.8-2.493v.585l1.611 6.138 2.934 4.572 3.24-.504-.09 1.989-1.71 2.601-4.698 4.293-.09 2.115.81 3.663-2.997 3.231-.099 2.232-2.79 3.429v.774l-3.726 2.115h-1.755l-.54-.954-2.115-9.288.09-2.142.468-.657.081-1.935-1.962-4.644.054-1.233.45-.288v-1.17l-.333-.558h-1.728l-.801-1.071h-2.187l-2.889.513h-3.492l-2.898-4.815.207-4.833 6.345-7.794 3.888-1.071h4.194l.288 2.07 4.203 1.8.972-.9H279l.675.702h3.96l1.305-2.259.054-1.071-.297-.315h-.441l-.324.306h-.693l-.342-.351h-.603l-.36.351h-.468l-.378-.405-.846-.9.072-1.8H279l-.594.306.216 1.404-.576.252v.675l-.414-.216-1.017-2.151v-1.017l-1.332-.9-1.611-1.683h-.666v.783l.9.765.072.594 2.007 1.53-.198.423-.09-.423h-.513l.081.657-.972.999-.297.72-.846-.9h1.08l.477-.45v-.846l-2.7-2.106-.225-.729h-.945l-.981.747h-.756l-.549-.252-.9.558v.558l-1.467 1.413v.729l-1.179 1.233h-1.125l-.468.297h-.567l-.252-.405-1.26-.252.072-1.665.774-.738v-1.44h3.501l.198-2.151-1.467-1.386 5.688-3.744 1.485-.621.09-1.971.792-.765-.108 2.52 2.961-.405h2.592l.081-1.926.612-.585.378.396h.513l.063-1.548h1.989l.738-.702H279l-.666-.693.081-1.71 1.89-1.8v-.9H279l-3.42 3.276-.18 4.635-1.575.585-.9-2.331-2.034.801-.765-.801.09-2.187 5.868-6.921 6.417-1.89L288 213.3l-1.026.981h-3.384l2.7 2.844 3.132-1.8 11.034-3.42 12.366-5.211a52.623 52.623 0 00-38.988-16.875 56.429 56.429 0 00-24.723 5.724l2.565-.27 8.1 2.385-4.5 13.5-5.985 2.43-4.059 1.989-1.467 4.662-3.249-1.215-2.259-5.049.648-1.548-1.8-7.677-1.314-.279a59.24 59.24 0 00-6.381 6.633l2.988 2.7-1.656 4.626-3.753-2.475.819-1.692-.486-.504a58.04 58.04 0 00-6.399 11.196l1.8 1.071 2.232-2.133.225-5.463 7.2 3.231 3.762 4.707-1.701 1.629h-3.42l.954 3.177-9.9 9.324 1.152 2.88-.702.675-2.106-2.205h-3.807a58.918 58.918 0 00-.225 3.114 38.975 38.975 0 000 3.402h.144l1.143-1.089h1.674l-.9.9-.099 2.331h2.034l.648 2.52h1.629l1.593 1.674 1.728-1.692 10.233 3.834 1.107 2.475 3.753 1.8 2.376.144 2.574 2.232-2.502 3.978-1.404 4.563-3.753 1.458-8.19 9.693a52.209 52.209 0 0027.981 15.84l.828-.396 7.776-.549 5.274-.441 1.692-.9 4.356.153 3.249.9-.774.288 1.287.639a58.561 58.561 0 0041.877-37.728l-1.08-1.998 2.178-1.422a55.43 55.43 0 001.827-11.871zm-29.295-40.23l4.734-1.674h2.115l-6.237 2.763-1.332 2.241 1.278 1.566-1.665-.216-.9-1.494 2.007-3.186zm-15.705-5.625l-1.431.639-2.979-.99 4.41.351zm-5.715 0l3.177 1.404 1.557 1.017-1.8.288-.387-1.017-1.008-.252-1.377 2.367-2.043-2.592-.252-.9 2.133-.315zm-50.634 48.177l-.9-.207-3.69-1.503.819-.351 3.834 1.314-.063.747zm2.502.963h-1.962l.549-.963 2.187.225-.774.738zm35.766-26.847l1.062-.513.9 1.845 1.656 3.177-3.303 1.314.693-3.168-1.17-1.152.162-1.503zm-2.034 2.421h1.8l-.414 2.034h-1.638l.252-2.034zm-3.915-7.767l-.792.243-1.449-.297-.306-.837.36-.396 2.997-.693 1.503.693-.297.558-1.593.207-.423.522zm32.904 54.243l-1.539 2.745h-1.044l-.441-.459.09-2.016.531-.513-.324-.342.09-1.8 2.052-1.053.819-1.26.216 1.386-.45 3.312zm30.123-8.721h-1.062l-2.466-3.6-1.539-2.367 1.269.108 3.861 4.338-.063 1.521z" fill="#5143D7"/><path opacity=".3" d="M291.915 278.271l-5.616 19.143a54.247 54.247 0 007.083-2.79l-1.467-16.353z" fill="#263238"/><path opacity=".9" d="M262.917 150.813c.324-7.74 6.435-14.013 13.644-14.013 7.209 0 12.78 6.3 12.456 14.013-.603 14.112-13.986 21.978-13.986 21.978s-12.717-7.866-12.114-21.978z" fill="#5143D7"/><path d="M319.635 307.224l-27.72-28.962-1.8 40.95 9.792-9.387 2.88 7.74c.163.409.406.782.715 1.096a3.302 3.302 0 002.371.977c.44-.004.875-.097 1.279-.273a3.54 3.54 0 002.034-4.446l-2.88-7.74 13.329.045z" fill="#fff"/><path d="M142.416 136.17a1019.12 1019.12 0 00-4.95 13.923 274.713 274.713 0 00-2.34 6.957c-.747 2.313-1.44 4.617-2.007 6.849a34.44 34.44 0 00-.684 3.168c-.081.486-.108.9-.144 1.224-.036.324 0 .9 0 1.368a43.935 43.935 0 001.116 6.633c1.089 4.626 2.493 9.405 3.879 14.112l-4.806 2.259a84.505 84.505 0 01-7.119-13.824 43.051 43.051 0 01-2.403-7.947 20.491 20.491 0 01-.297-2.367c-.042-.84-.024-1.682.054-2.52.135-1.53.351-2.898.594-4.23a141.598 141.598 0 014.005-15.075 232.247 232.247 0 015.094-14.4l10.008 3.87z" fill="#B55B52"/><path d="M135.81 188.1l4.005 5.166-7.38 3.492s-2.106-3.402-.837-6.588l4.212-2.07z" fill="#B55B52"/><path d="M142.264 197.721l-5.382 3.357-4.446-4.329 7.38-3.492 2.448 4.464z" fill="#B55B52"/><path d="M168.002 102.285c-.063.567.18 1.053.558 1.098.378.045.72-.387.783-.954.063-.567-.189-1.053-.558-1.098-.369-.045-.72.369-.783.954z" fill="#263238"/><path d="M168.137 103.338a20.343 20.343 0 002.169 5.139c-.417.235-.88.376-1.358.414a3.295 3.295 0 01-1.405-.198l.594-5.355z" fill="#A02724"/><path d="M166.275 98.91a.326.326 0 01-.189-.153.343.343 0 01-.033-.256.345.345 0 01.059-.118.35.35 0 01.1-.085 3.351 3.351 0 013.051-.19.348.348 0 01.144.46.34.34 0 01-.45.144 2.645 2.645 0 00-2.421.17.325.325 0 01-.261.028z" fill="#263238"/><path d="M149.823 106.479c1.017 5.166 2.025 14.643-1.593 18.09 0 0 1.422 5.247 11.025 5.247 10.566 0 5.049-5.247 5.049-5.247-5.769-1.377-5.616-5.652-4.617-9.675l-9.864-8.415z" fill="#B55B52"/><path d="M145.179 127.233c-.954-.63.288-3.933 1.242-4.5 2.529-1.53 13.743-2.043 18.414.9a4.624 4.624 0 01.9 3.879l-20.556-.279z" fill="#263238"/><path d="M119.079 366.858a2.237 2.237 0 001.746-.189.675.675 0 00.126-.783.745.745 0 00-.45-.468c-.981-.405-3.123.594-3.213.639a.173.173 0 00-.073.061.178.178 0 00-.026.092.184.184 0 00.099.153 8.927 8.927 0 001.791.495zm1.089-1.188l.198.054a.487.487 0 01.27.279c.108.297 0 .396 0 .423-.36.342-1.8.117-2.799-.234a5.593 5.593 0 012.331-.522z" fill="#5143D7"/><path d="M117.334 366.372h.081c.783-.27 2.43-1.566 2.412-2.367a.544.544 0 00-.459-.522.903.903 0 00-.738.099c-.9.522-1.413 2.511-1.431 2.592a.15.15 0 00.045.162c.026.02.057.033.09.036zm1.872-2.592h.072c.207.054.216.162.216.198 0 .477-1.071 1.485-1.881 1.908a3.998 3.998 0 011.188-2.043.557.557 0 01.405-.063zm47.825 3.978c.9 0 1.8-.126 2.079-.531a.644.644 0 000-.729.84.84 0 00-.531-.396c-1.17-.315-3.6 1.089-3.744 1.152a.146.146 0 00-.07.071.15.15 0 00-.011.1.153.153 0 00.126.135c.71.128 1.429.194 2.151.198zm1.125-1.368c.107-.015.216-.015.324 0a.498.498 0 01.324.234c.117.207.072.315 0 .369-.333.459-2.115.468-3.429.288a7.446 7.446 0 012.781-.891z" fill="#5143D7"/><path d="M164.898 367.569h.072c.846-.387 2.538-1.908 2.412-2.7 0-.189-.162-.423-.63-.468a1.215 1.215 0 00-.9.288c-.9.738-1.089 2.637-1.098 2.7a.181.181 0 00.018.085.18.18 0 00.054.068.185.185 0 00.072.027zm1.728-2.871h.099c.297 0 .315.144.324.189.081.477-1.071 1.674-1.944 2.205a3.923 3.923 0 01.9-2.187.904.904 0 01.621-.207z" fill="#5143D7"/><path d="M157.121 367.398h7.074l.702-16.371h-7.065l-.711 16.371zm-47.682-2.511l7.056 1.152 5.013-15.57-7.065-1.152-5.004 15.57z" fill="#B55B52"/><path d="M117 365.31l-7.839-1.287a.614.614 0 00-.675.378l-2.394 5.967a1.05 1.05 0 00.38 1.242c.128.088.275.147.43.171 2.7.396 4.104.459 7.542 1.026 2.124.351 7.524 1.611 10.485 1.8 2.961.189 3.537-2.7 2.34-3.06-5.355-1.539-7.749-3.789-9.216-5.616a1.7 1.7 0 00-1.053-.621zm47.151 1.269h-7.722a.615.615 0 00-.603.486l-1.395 6.3a1.027 1.027 0 001.017 1.251c2.781-.045 6.804-.207 10.305-.207 4.095 0 5.823.225 10.62.225 2.898 0 3.708-2.934 2.493-3.204-5.535-1.206-8.235-1.332-13.014-4.284a3.33 3.33 0 00-1.701-.567z" fill="#263238"/><path d="M135.575 126.171c-6.453 2.124-10.323 19.467-10.323 19.467l14.175 8.865a29.094 29.094 0 005.823-13.662c1.449-9.036-3.051-16.848-9.675-14.67z" fill="#5143D7"/><path d="M135.575 126.171c-6.453 2.124-10.323 19.467-10.323 19.467l14.175 8.865a29.094 29.094 0 005.823-13.662c1.449-9.036-3.051-16.848-9.675-14.67z" fill="#fff" opacity=".4"/><path opacity=".2" d="M139.446 144.351a20.787 20.787 0 00-3.114 8.217l3.096 1.935a28.348 28.348 0 005.4-11.646l-5.382 1.494z" fill="#000"/><path d="M175.176 126.531s7.524 8.496.414 61.092h-37.8c-.261-5.805 3.384-34.11-2.214-61.452a98.112 98.112 0 0112.654-1.602 138.58 138.58 0 0116.074 0 71.334 71.334 0 0110.872 1.962z" fill="#5143D7"/><path d="M175.176 126.531s7.524 8.496.414 61.092h-37.8c-.261-5.805 3.384-34.11-2.214-61.452a98.112 98.112 0 0112.654-1.602 138.58 138.58 0 0116.074 0 71.334 71.334 0 0110.872 1.962z" fill="#fff" opacity=".4"/><path opacity=".2" d="M178.48 142.605l-.144-.126-8.595 2.061c-.486 5.814 5.49 12.753 8.568 15.93.381-5.947.438-11.911.171-17.865zm-13.583 208.431l-.36 8.433h-7.074l.36-8.433h7.074zm-50.453-1.719l7.065 1.161-2.592 8.019-7.056-1.152 2.583-8.028z" fill="#000"/><path d="M149.228 99c-.333 7.002-.9 11.088 2.232 15.048 4.689 5.958 13.635 3.717 16.056-3.051 2.187-6.084 2.376-16.524-4.131-20.043A9.565 9.565 0 00149.228 99z" fill="#B55B52"/><path d="M162.243 105.147c-2.844 4.356-1.251 5.805-2.844 7.803-1.593 1.998-12.258 4.851-12.357-.198a11.743 11.743 0 00-4.347-9.45 5.503 5.503 0 01-.649-7.063 5.497 5.497 0 011.9-1.694c3.798-2.097-1.611-3.123.711-6.498 3.456-5.004 8.181-6.651 12.132-3.195 3.951 3.456 10.359 5.4 14.958.999 4.599-4.401 3.798 12.762-7.65 11.979 4.923 4.923-3.303 2.52-1.854 7.317z" fill="#263238"/><path d="M146.348 92.808c-1.863 1.305-4.59-3.033-3.942-5.4-2.358 2.7-1.8 7.128 3.024 7.2 4.824.072.918-1.8.918-1.8z" fill="#263238"/><path d="M159.966 101.844a7.914 7.914 0 001.107 4.968c1.215 1.953 2.988 1.197 3.6-.783.576-1.8.639-4.959-1.044-6.219-1.683-1.26-3.429-.045-3.663 2.034z" fill="#B55B52"/><path d="M162.18 187.623s-8.019 54-12.42 74.241c-4.86 22.158-27.162 95.436-27.162 95.436l-12.6-2.7s14.553-59.742 18.603-90.72c3.105-23.796 9.234-76.257 9.234-76.257h24.345z" fill="#263238"/><path d="M125.631 353.115c.054 0-2.358 4.572-2.358 4.572l-14.238-3.087 1.206-4.284 15.39 2.799z" fill="#5143D7"/><path opacity=".3" d="M157.112 206.865c-9.27 1.8-8.289 36.405-7.2 54.189 2.7-12.6 6.588-36.765 9.261-53.937a3.18 3.18 0 00-2.061-.252z" fill="#000"/><path d="M175.59 187.623s2.943 52.839 2.169 74.394c-.801 22.383-10.593 95.823-10.593 95.823h-11.97s1.521-72.099.99-94.113c-.585-24.003-7.776-76.104-7.776-76.104h27.18z" fill="#263238"/><path d="M169.469 353.07c.054 0-.675 4.968-.675 4.968h-14.562l-.396-4.437 15.633-.531z" fill="#5143D7"/><path d="M179.019 133.695c2.025 4.698 4.23 9.54 6.516 14.193 2.193 4.61 4.67 9.079 7.416 13.383a46.712 46.712 0 002.079 2.925l.54.666c.18.207.234.297.414.486.306.342.729.72 1.143 1.107 1.728 1.566 3.834 3.105 5.922 4.644 4.212 3.051 8.631 6.075 12.96 9.144l-2.439 4.716a124.435 124.435 0 01-14.976-6.705 65.175 65.175 0 01-7.326-4.437 23.68 23.68 0 01-1.908-1.521c-.306-.27-.702-.666-.981-.945l-.783-.855a57.49 57.49 0 01-2.817-3.438 109.857 109.857 0 01-8.784-14.337c-1.26-2.448-2.493-4.896-3.6-7.398-1.107-2.502-2.295-4.923-3.303-7.623l9.927-4.005z" fill="#B55B52"/><path d="M164.861 133.596c-5.454 8.1 7.317 22.797 7.317 22.797l14.283-9.9a60.334 60.334 0 00-4.851-14.508c-4.653-9.783-12.591-4.536-16.749 1.611z" fill="#5143D7"/><path d="M164.861 133.596c-5.454 8.1 7.317 22.797 7.317 22.797l14.283-9.9a60.334 60.334 0 00-4.851-14.508c-4.653-9.783-12.591-4.536-16.749 1.611z" fill="#fff" opacity=".4"/><path d="M211.716 179.298l8.784 1.242-2.295 7.38s-6.237 0-8.1-4.806l1.611-3.816z" fill="#B55B52"/><path d="M223.227 182.898l-1.899 6.048-3.15-1.026 2.295-7.38 2.754 2.358z" fill="#B55B52"/></svg>