<svg width="450" height="450" fill="none" xmlns="http://www.w3.org/2000/svg"><path d="M334.601 363.483c-63.675 33.984-166.914 33.984-230.589 0-63.675-33.984-63.684-89.1 0-123.084 63.684-33.984 166.914-33.993 230.589 0 63.675 33.993 63.675 89.091 0 123.084z" fill="#EBEBEB"/><path d="M85.284 279.162l9.288-5.4s2.277-19.899.765-35.307c-2.133-21.663-16.119-47.7-32.796-41.598-16.677 6.102 7.66 28.215 13.06 46.575 5.4 18.36 9.683 35.73 9.683 35.73z" fill="#46D743"/><path opacity=".1" d="M85.284 279.162l9.288-5.4s2.277-19.899.765-35.307c-2.133-21.663-16.119-47.7-32.796-41.598-16.677 6.102 7.66 28.215 13.06 46.575 5.4 18.36 9.683 35.73 9.683 35.73z" fill="#000"/><path d="M90.118 276.723a.358.358 0 00.36-.306c3.159-24.3-5.49-61.029-22.95-74.961a.352.352 0 00-.572.317c.01.094.057.181.13.241 17.272 13.788 25.813 50.229 22.68 74.304a.362.362 0 00.307.405h.045z" fill="#fff"/><path d="M80.325 283.005l6.606-3.825s1.125-13.653-5.571-30.24c-5.823-14.4-20.286-26.424-27.558-23.904-7.272 2.52-7.092 7.677-3.546 13.086 3.546 5.409 25.119 18.306 30.069 44.883z" fill="#46D743"/><path d="M84.42 283.356a.353.353 0 00.316-.24.348.348 0 00.017-.138c-2.178-33.984-19.368-50.697-29.7-53.244a.373.373 0 00-.273.041.372.372 0 00-.168.22.359.359 0 00.26.432c10.882 2.7 27.118 20.79 29.152 52.596a.36.36 0 00.253.319c.046.014.095.019.143.014z" fill="#fff"/><path d="M352.8 281.808s-1.233-19.953 10.359-33.633c11.592-13.68 26.685-13.626 31.68-11.079 4.995 2.547 8.352 9.828-.243 15.039s-26.874 15.642-29.916 24.948l-11.88 4.725z" fill="#46D743"/><path opacity=".1" d="M352.8 281.808s-1.233-19.953 10.359-33.633c11.592-13.68 26.685-13.626 31.68-11.079 4.995 2.547 8.352 9.828-.243 15.039s-26.874 15.642-29.916 24.948l-11.88 4.725z" fill="#000"/><path d="M358.254 276.813a.456.456 0 00.45-.405c2.385-22.077 24.453-34.308 33.246-35.694a.453.453 0 00.383-.517.458.458 0 00-.34-.375.464.464 0 00-.178-.008c-9 1.413-31.563 13.923-34.011 36.495a.456.456 0 00.236.444.46.46 0 00.169.051l.045.009z" fill="#fff"/><path d="M362.548 271.746c2.907-6.624 6.192-9.594 15.642-8.01 9.45 1.584 8.1 1.341 19.665-1.62 4.878-1.242 10.359-1.44 15.039.666 3.951 1.8 6.903 5.4 3.078 9.234-4.302 4.284-10.719 5.751-15.471 9.522a7.476 7.476 0 00-2.484 2.997c-1.251 3.186 1.251 6.777.522 10.116-.729 3.339-4.239 5.121-7.533 5.337-3.294.216-6.543-.774-9.828-1.152-3.285-.378-6.975 0-9.243 2.439-2.43 2.583-2.493 6.714-4.752 9.459-3.384 4.113-11.7 5.256-16.2 2.7l-11.781-6.795c-7.785-10.494 4.5-18.81 10.935-26.955 3.123-3.969 10.665-3.951 12.411-7.938z" fill="#46D743"/><path d="M346.501 300.303a.42.42 0 00.378-.216c13.437-21.771 50.022-32.787 62.964-33.687a.448.448 0 00.261-.785.458.458 0 00-.324-.115c-13.113.9-50.049 12.078-63.666 34.137a.462.462 0 00-.05.341.463.463 0 00.203.28.537.537 0 00.234.045z" fill="#fff"/><path d="M389.062 290.043a.43.43 0 00.36-.18.452.452 0 00-.09-.63c-.468-.351-11.628-8.541-22.5-8.703a.44.44 0 00-.45.441.445.445 0 00.125.321.45.45 0 00.316.138c10.557.153 21.834 8.442 21.951 8.523a.416.416 0 00.288.09z" fill="#fff"/><path d="M347.338 307.953a8.358 8.358 0 01-3.897 6.471l-109.197 63.045a8.611 8.611 0 01-7.794 0l-149.4-86.265a7.323 7.323 0 01-3.902-6.471 7.315 7.315 0 013.902-6.471l109.188-63a8.611 8.611 0 017.794 0L343.441 301.5a8.37 8.37 0 013.897 6.453z" fill="#37474F"/><path d="M302.283 277.722L343.44 301.5a7.324 7.324 0 013.902 6.471 7.32 7.32 0 01-3.902 6.471l-109.197 63.045a7.95 7.95 0 01-3.897.9V277.722h71.937z" fill="#263238"/><path d="M351 301.626a8.37 8.37 0 003.654-6.615V164.7a8.603 8.603 0 00-3.897-6.75l-149.4-86.265a7.325 7.325 0 00-11.214 6.471v130.32a8.616 8.616 0 003.897 6.75l149.4 86.274a8.37 8.37 0 007.56.126z" fill="#455A64"/><path d="M336.366 170.757l17.145-9.9a7.996 7.996 0 011.089 3.843v130.311a8.385 8.385 0 01-3.654 6.615 8.364 8.364 0 01-7.551-.144l-17.046-9.837 10.017-120.888z" fill="#263238"/><path d="M347.338 168.93v130.302c0 2.484-1.746 3.492-3.897 2.25l-149.4-86.256a8.627 8.627 0 01-3.897-6.75V78.165c0-2.484 1.746-3.492 3.897-2.25l149.4 86.265a8.62 8.62 0 012.757 2.908 8.616 8.616 0 011.14 3.842z" fill="#37474F"/><path d="M343.441 306l-109.197 63a8.611 8.611 0 01-7.794 0l-149.4-86.265c-2.16-1.242-2.16-3.258 0-4.5l109.188-63a8.605 8.605 0 017.794 0L343.441 301.5c2.16 1.224 2.16 3.24 0 4.5z" fill="#455A64"/><path d="M341.344 169.407L196.129 85.572c-1.287-.747-2.34-.144-2.34 1.35v112.797a5.175 5.175 0 002.34 4.05l145.215 83.835c1.296.747 2.34.144 2.34-1.35V173.457a5.164 5.164 0 00-2.34-4.05z" fill="#fff"/><path d="M330.768 302.607l-138.681-80.1a4.31 4.31 0 00-3.897 0l-7.101 4.095a1.19 1.19 0 00-.806 1.125 1.186 1.186 0 00.806 1.125l138.708 80.091a4.309 4.309 0 003.897 0l7.074-4.086a1.19 1.19 0 00.806-1.125 1.193 1.193 0 00-.806-1.125zM312.481 313.2l-138.672-80.1a4.333 4.333 0 00-3.906 0l-43.623 25.2a1.19 1.19 0 00-.806 1.125 1.186 1.186 0 00.806 1.125l138.519 79.938a4.327 4.327 0 003.906 0l43.776-25.083a1.179 1.179 0 000-2.205z" fill="#263238"/><path d="M188.172 269.1l-4.347-2.511c-.18-.108-.171-.279 0-.396l5.022-2.898a.762.762 0 01.693 0l4.338 2.511c.189.108.18.279 0 .396l-5.022 2.898a.753.753 0 01-.684 0zm8.568-9.9l4.338 2.511c.189.099.18.279 0 .396l-5.022 2.898a.755.755 0 01-.693 0l-4.347-2.511c-.18-.108-.171-.288 0-.396l5.031-2.898a.762.762 0 01.693 0zm14.022 8.1l7.353 4.239c.18.108.171.288 0 .405l-5.022 2.898a.755.755 0 01-.693 0l-7.344-4.239c-.189-.108-.171-.288 0-.396l5.022-2.907a.742.742 0 01.684 0zm-7.677-4.437l4.338 2.511c.189.108.18.288 0 .396l-5.022 2.898a.755.755 0 01-.693 0l-4.347-2.511c-.18-.108-.171-.279 0-.396l5.031-2.961a.762.762 0 01.693 0v.063zm17.037 9.837l4.338 2.502c.189.108.171.288 0 .405l-5.022 2.898a.765.765 0 01-.684 0l-4.347-2.511c-.18-.108-.171-.288 0-.396l5.022-2.898a.762.762 0 01.693 0zm6.3 3.663l4.338 2.511c.189.099.171.279 0 .396l-5.022 2.898a.755.755 0 01-.693 0l-4.347-2.511c-.18-.108-.171-.288 0-.396l5.076-2.961a.762.762 0 01.693 0l-.045.063zm-19.755 11.79l-4.338-2.511c-.189-.108-.171-.279 0-.396l5.022-2.898a.742.742 0 01.684 0l4.347 2.511c.18.108.171.279 0 .396l-5.022 2.898a.764.764 0 01-.648-.045l-.045.045zm6.354 3.663l-4.347-2.511c-.18-.099-.171-.279 0-.396l5.022-2.898a.762.762 0 01.693 0l4.338 2.511c.189.108.171.288 0 .396l-5.022 2.898a.733.733 0 01-.639-.045l-.045.045zm6.345 3.663l-4.347-2.502c-.18-.108-.171-.288 0-.405l5.022-2.898a.789.789 0 01.693 0l4.338 2.511c.189.108.171.288 0 .396l-5.013 2.898a.764.764 0 01-.648-.045l-.045.045zm6.3 3.663l-4.347-2.502c-.18-.108-.171-.288 0-.405l5.022-2.898a.762.762 0 01.693 0l4.338 2.502c.189.108.18.288 0 .405l-5.022 2.898a.781.781 0 01-.594-.045l-.09.045zm-31.239-26.316l-4.347-2.511c-.18-.099-.171-.279 0-.396l5.022-2.898a.789.789 0 01.693 0l4.338 2.511c.189.108.18.288 0 .396l-5.022 2.898a.748.748 0 01-.594-.045l-.09.045zm5.85 11.7l-9.684-5.598c-.18-.099-.171-.279 0-.396l12.195-7.038a.762.762 0 01.693 0l5.004 2.898c.189.099.171.279 0 .396l-6.462 3.726c-.198.117-.207.297 0 .405l4.077 2.214c.18.099.171.279 0 .396l-5.04 2.871a.759.759 0 01-.693.045l-.09.081zm32.445-4.5l4.338 2.511c.189.108.18.279 0 .396l-5.022 2.898a.755.755 0 01-.693 0l-4.347-2.511c-.18-.108-.171-.279 0-.396l5.022-2.898a.76.76 0 01.792-.045l-.09.045zm6.3 3.663l4.482 2.511c.18.108.171.288 0 .396l-5.022 2.898a.755.755 0 01-.693 0l-4.347-2.511c-.18-.099-.171-.279 0-.396l5.058-2.925a.763.763 0 01.657-.018l-.135.045zm31.878 41.04a.755.755 0 01-.693 0l-4.347-2.511c-.18-.099-.171-.279 0-.396l5.04-2.88a.762.762 0 01.693 0l4.338 2.511c.189.108.18.288 0 .396l-5.031 2.88zm19.053-11.772l4.347 2.511c.18.108.171.279 0 .396l-5.022 2.898a.755.755 0 01-.693 0l-4.347-2.511c-.18-.108-.171-.279 0-.396l5.022-2.898a.756.756 0 01.666 0h.027zm-10.215 8.595a.755.755 0 01-.693 0l-4.338-2.511c-.189-.099-.171-.279 0-.396l5.013-2.898a.762.762 0 01.693 0l4.347 2.511c.18.108.171.288 0 .396l-5.022 2.898zm-20.043 5.4l-4.347-2.511c-.18-.108-.171-.279 0-.396l5.022-2.898a.762.762 0 01.693 0l4.338 2.511c.189.099.171.279 0 .396l-5.013 2.898a.76.76 0 01-.72.009l.027-.009zm7.038 3.6a.755.755 0 01-.693 0l-4.347-2.511c-.18-.099-.171-.279 0-.396l5.022-2.898a.762.762 0 01.693 0l4.338 2.511c.189.108.18.288 0 .396l-5.013 2.898zm16.875-21.312l4.338 2.511c.189.099.18.279 0 .396l-5.022 2.898a.755.755 0 01-.693 0l-4.347-2.511c-.18-.108-.171-.288 0-.396l5.022-2.898a.763.763 0 01.675.054l.027-.054zm-31.734-18.315l4.347 2.502c.18.108.171.288 0 .396l-5.022 2.907a.782.782 0 01-.693 0l-4.338-2.502c-.189-.108-.18-.288 0-.405l5.022-2.898a.751.751 0 01.657.054l.027-.054zm25.326 14.706l4.338 2.502c.189.108.18.288 0 .405l-5.022 2.898a.782.782 0 01-.693 0l-4.347-2.511c-.18-.108-.171-.288 0-.396l5.022-2.907a.788.788 0 01.702.009zm-31.734-18.324l4.383 2.493c.18.108.171.288 0 .396l-5.022 2.898a.755.755 0 01-.693 0l-4.338-2.502c-.189-.108-.18-.288 0-.405l5.004-2.862a.789.789 0 01.702-.018h-.036zm12.69 7.335l4.347 2.502c.18.108.171.288 0 .405l-5.022 2.898a.782.782 0 01-.693 0l-4.338-2.502c-.189-.108-.171-.288 0-.405l5.013-2.898a.788.788 0 01.729 0h-.036zm6.354 3.663l4.338 2.502c.189.108.171.288 0 .405l-5.022 2.898a.782.782 0 01-.693 0l-4.338-2.502c-.18-.108-.171-.288 0-.405l5.022-2.898a.788.788 0 01.729 0h-.036zm6.39 3.663l4.338 2.502c.189.108.171.288 0 .405l-5.013 2.898a.755.755 0 01-.693 0l-4.347-2.502c-.18-.108-.171-.288 0-.405l5.022-2.898a.789.789 0 01.693 0zm-32.445 4.5l-4.338-2.502c-.189-.108-.18-.288 0-.405l5.031-2.961a.789.789 0 01.693 0l4.347 2.502c.18.108.171.288 0 .405l-5.022 2.898a.75.75 0 01-.72.018l.009.045zM182.7 251.1l4.347 2.511c.18.108.171.279 0 .396l-5.022 2.898a.755.755 0 01-.693 0l-4.338-2.511c-.189-.108-.18-.279 0-.396l5.022-2.898a.756.756 0 01.684 0zm7.686 4.437l4.338 2.511c.189.099.171.279 0 .396l-5.013 2.898a.782.782 0 01-.693 0l-4.347-2.511c-.18-.108-.171-.288 0-.396l5.022-2.898a.76.76 0 01.702-.045l-.009.045zm-14.031-8.1l4.338 2.511c.189.099.18.279 0 .396l-5.022 2.898a.755.755 0 01-.692 0l-4.348-2.511c-.18-.108-.171-.288 0-.396l5.022-2.898a.755.755 0 01.747-.045l-.045.045zm32.85 33.876l-4.347-2.511c-.18-.108-.171-.288 0-.396l5.022-2.898a.762.762 0 01.693 0l4.338 2.511c.189.099.18.279 0 .396l-5.022 2.898a.755.755 0 01-.675-.045l-.009.045zm-39.888-37.521a.762.762 0 01.693 0l4.338 2.511c.189.099.18.279 0 .396l-5.022 2.898a.782.782 0 01-.693 0l-4.347-2.511c-.18-.108-.171-.288 0-.396l5.031-2.898zm62.784 58.968l-4.347-2.502c-.18-.108-.171-.288 0-.405l5.049-2.853a.762.762 0 01.693 0l4.338 2.502c.189.108.18.288 0 .405l-5.022 2.898a.78.78 0 01-.711-.045zm-77.823-44.928l-4.347-2.511c-.18-.099-.171-.279 0-.396L154.98 252a.762.762 0 01.693 0l4.338 2.511c.189.108.18.288 0 .396l-5.022 2.898a.756.756 0 01-.711.027zm13.5-.477l-4.347-2.511c-.18-.108-.171-.279 0-.396l5.022-2.898a.762.762 0 01.693 0l4.338 2.511c.189.108.18.279 0 .396l-5.022 2.898a.756.756 0 01-.666.045l-.018-.045zm-5.643-9.468a.762.762 0 01.693 0l4.338 2.511c.189.099.18.279 0 .396l-5.022 2.898a.755.755 0 01-.693 0l-4.347-2.511c-.18-.108-.171-.288 0-.396l5.031-2.898zm-1.341-.774l-12.186 7.038a.755.755 0 01-.693 0l-4.347-2.511c-.18-.108-.171-.279 0-.396l12.195-7.038a.762.762 0 01.693 0l4.338 2.511c.234.099.216.279.018.396h-.018zm14.724 8.1l4.347 2.511c.18.108.171.288 0 .396l-5.022 2.898a.755.755 0 01-.693 0l-4.338-2.511c-.189-.099-.18-.279 0-.396l5.022-2.898a.754.754 0 01.666-.018l.018.018zm47.763 27.576l4.365 2.511c.18.108.171.288 0 .396l-5.022 2.898a.755.755 0 01-.693 0l-4.338-2.511c-.189-.099-.18-.279 0-.396l5.022-2.898a.75.75 0 01.684-.018l-.018.018zm-61.983-21.294a.755.755 0 01-.693 0l-4.347-2.511c-.18-.099-.171-.279 0-.396l5.022-2.898a.789.789 0 01.693 0l4.338 2.511c.189.108.18.288 0 .396l-5.013 2.898zm55.638 17.631l4.338 2.511c.189.108.18.279 0 .396l-5.022 2.898a.755.755 0 01-.693 0l-4.347-2.511c-.18-.108-.171-.279 0-.396l5.022-2.898a.753.753 0 01.72-.018l-.018.018zm47.574 41.958a.755.755 0 01-.693 0l-4.347-2.511c-.18-.108-.171-.279 0-.396l5.022-2.898a.762.762 0 01.693 0l4.338 2.511c.189.108.171.279 0 .396l-5.013 2.898zm9.54-9l4.347 2.511c.18.108.171.279 0 .396l-5.022 2.898a.755.755 0 01-.693 0l-4.338-2.511c-.189-.108-.18-.279 0-.396l5.022-2.898a.756.756 0 01.702 0h-.018zm-16.587 5.337l-4.338-2.511c-.18-.108-.171-.288 0-.396l5.022-2.898a.762.762 0 01.693 0l4.383 2.484c.18.099.171.279 0 .396l-5.022 2.898a.756.756 0 01-.72.027h-.018zm-6.345-3.663l-4.338-2.511c-.189-.108-.171-.288 0-.396l5.013-2.898a.762.762 0 01.693 0l4.347 2.502c.18.108.171.288 0 .405l-5.022 2.898a.78.78 0 01-.711 0h.018zm-6.3-3.672l-4.338-2.502c-.189-.108-.18-.288 0-.396l5.022-2.907a.789.789 0 01.693 0l4.347 2.502c.18.108.171.288 0 .405l-5.022 2.898a.752.752 0 01-.72 0h.018zm22.932-1.665l4.347 2.511c.18.099.171.279 0 .396l-5.022 2.898a.755.755 0 01-.693 0l-4.347-2.511c-.18-.108-.171-.288 0-.396l5.022-2.898a.756.756 0 01.666 0h.027zm-6.345-3.663l4.338 2.502c.189.108.18.288 0 .405l-5.022 2.898a.782.782 0 01-.693 0l-4.428-2.493c-.18-.108-.171-.288 0-.396l5.022-2.898a.758.758 0 01.756-.018h.027zm-25.389-14.652l4.284 2.502c.18.108.171.288 0 .405l-5.022 2.898a.782.782 0 01-.693 0l-4.338-2.502c-.189-.108-.171-.288 0-.405l5.013-2.898a.759.759 0 01.729 0h.027zm6.354 3.663l4.338 2.502c.18.108.171.288 0 .405l-5.022 2.898a.782.782 0 01-.693 0l-4.338-2.502c-.189-.108-.171-.288 0-.405l5.022-2.898a.785.785 0 01.666 0h.027zm-12.699-7.335l4.329 2.511c.18.108.171.288 0 .396l-5.022 2.907a.782.782 0 01-.693 0l-4.338-2.511c-.189-.099-.18-.279 0-.396l5.022-2.898a.788.788 0 01.675-.009h.027zm25.389 14.661l4.338 2.502c.189.108.18.288 0 .405l-5.022 2.898a.782.782 0 01-.693 0l-4.347-2.511c-.18-.108-.171-.288 0-.396l5.022-2.907a.78.78 0 01.675.009h.027zm-6.345-3.663l4.338 2.502c.189.108.171.288 0 .405l-5.022 2.898a.736.736 0 01-.684 0L243 300.735c-.18-.108-.171-.288 0-.405l5.022-2.898a.785.785 0 01.666 0h.027zm4.626 25.866l-4.338-2.511c-.18-.108-.171-.288 0-.396l5.022-2.898a.762.762 0 01.693 0l4.338 2.511c.189.099.171.279 0 .396l-5.022 2.898a.752.752 0 01-.72 0h.027zm37.215-3.798l5.022-2.898a.762.762 0 01.693 0l4.329 2.529c.18.108.171.279 0 .396l-5.022 2.898a.755.755 0 01-.693 0l-4.338-2.511c-.198-.081-.189-.261.009-.414zm-9.504 2.79l5.022-2.898a.771.771 0 01.684 0l6.642 3.879c.18.108.171.288 0 .396l-5.022 2.898a.755.755 0 01-.693 0l-6.678-3.852c-.207-.09-.153-.27.045-.387v-.036zm17.208-8.397l5.04-2.862a.762.762 0 01.693 0l5.328 3.069c.18.108.171.288 0 .405l-5.022 2.898a.755.755 0 01-.693 0l-5.337-3.078c-.216-.099-.207-.279-.009-.396v-.036zm-4.095-2.367a.755.755 0 01-.693 0l-4.338-2.511c-.189-.099-.18-.279 0-.396l5.022-2.898a.762.762 0 01.693 0l4.347 2.511c.18.108.171.288 0 .396l-5.031 2.898zm-21.96 13.941l4.995-2.862a.789.789 0 01.693 0l8.352 4.824c.18.108.171.288 0 .396l-5.022 2.907a.782.782 0 01-.693 0l-8.352-4.824c-.18-.108-.171-.288.027-.405v-.036zm-4.167 5.877l5.022-2.844a.762.762 0 01.693 0l5.346 3.087c.18.108.171.288 0 .405l-5.022 2.898a.782.782 0 01-.693 0l-5.346-3.087c-.207-.126-.198-.306 0-.423v-.036zm-21.06-47.061a.755.755 0 01-.693 0l-4.338-2.502c-.189-.108-.171-.288 0-.405l5.022-2.898a.789.789 0 01.693 0l4.338 2.547c.18.108.171.288 0 .396l-5.022 2.862zm12.699 7.335a.782.782 0 01-.693 0l-4.347-2.502c-.18-.108-.171-.288 0-.405l5.022-2.898a.789.789 0 01.693 0l4.338 2.502c.189.108.171.288 0 .405l-5.013 2.898zm28.143 16.281a.755.755 0 01-.693 0l-4.338-2.511c-.189-.108-.18-.279 0-.396l5.022-2.898a.762.762 0 01.693 0l4.347 2.511c.18.108.171.279 0 .396l-5.031 2.898zM253.323 288a.765.765 0 01-.684 0l-4.347-2.502c-.18-.108-.171-.288 0-.405l5.022-2.898a.762.762 0 01.693 0l4.338 2.502c.189.108.171.288 0 .405L253.323 288zm12.699 7.326a.755.755 0 01-.693 0l-4.347-2.502c-.18-.108-.171-.288 0-.405l5.022-2.898a.789.789 0 01.693 0l4.338 2.502c.189.108.18.288 0 .405l-5.013 2.898zm-1.467 36.531a.789.789 0 01.693 0l6.678 3.843c.18.108.171.288 0 .405l-5.022 2.898a.755.755 0 01-.693 0l-6.678-3.852c-.189-.108-.171-.288 0-.405l5.022-2.889zM275.13 300.6a.782.782 0 01-.693 0l-4.347-2.511c-.18-.108-.171-.288 0-.396l5.022-2.898a.762.762 0 01.693 0l4.338 2.511c.189.099.18.279 0 .396l-5.013 2.898zm6.345 3.6a.755.755 0 01-.693 0l-4.347-2.511c-.18-.108-.171-.288 0-.396l5.022-2.898a.762.762 0 01.693 0l4.338 2.511c.189.099.18.279 0 .396l-5.013 2.898zm-134.496-40.23a.762.762 0 01.693 0l10.728 6.156c.18.108.171.288 0 .405l-5.022 2.898a.782.782 0 01-.693 0l-10.746-6.129c-.189-.108-.18-.288 0-.405l5.04-2.925zm14.031 8.1a.762.762 0 01.693 0l4.338 2.502c.189.108.18.288 0 .405l-5.022 2.898a.782.782 0 01-.693 0l-4.347-2.502c-.18-.108-.171-.288 0-.405l5.031-2.898zm85.959 47.565l-4.338-2.511c-.189-.108-.171-.288 0-.396l5.013-2.907a.789.789 0 01.693 0l4.347 2.502c.18.108.171.288 0 .405l-5.022 2.898a.778.778 0 01-.693.009zM173.7 279.396a.789.789 0 01.693 0l4.347 2.502c.18.108.171.288 0 .405l-5.022 2.898a.755.755 0 01-.693 0l-4.338-2.502c-.189-.108-.18-.288 0-.405l5.013-2.898zm-33.066-19.089a.789.789 0 01.693 0l4.338 2.493c.189.108.18.288 0 .396l-5.022 2.907a.782.782 0 01-.693 0l-4.346-2.502c-.181-.108-.172-.288 0-.405l5.03-2.889zm-11.367-.765l12.195-7.038a.762.762 0 01.693 0l4.338 2.511c.189.108.18.288 0 .396l-12.195 7.038a.755.755 0 01-.693 0l-4.347-2.511c-.198-.099-.189-.279.009-.396zm68.148 33.552a.762.762 0 01.693 0l5.346 3.087c.18.108.171.288 0 .396l-5.022 2.898a.755.755 0 01-.693 0l-5.346-3.087c-.18-.108-.171-.288 0-.396l5.022-2.898zm-16.029-9.261a.762.762 0 01.693 0l6.678 3.852c.18.108.171.288 0 .396l-5.022 2.907a.782.782 0 01-.693 0l-6.678-3.852c-.18-.108-.171-.288 0-.405l5.022-2.898zm30.726 17.739a.789.789 0 01.693 0l35.739 20.628c.18.108.171.288 0 .405l-5.022 2.898a.782.782 0 01-.693 0l-35.739-20.637c-.18-.108-.171-.288 0-.405l5.022-2.889zm37.746 21.798a.762.762 0 01.693 0l5.337 3.087c.189.108.18.288 0 .396l-5.022 2.898a.755.755 0 01-.693 0L244.8 326.7c-.18-.108-.171-.288 0-.396l5.058-2.934zm-45.09-26.037a.789.789 0 01.693 0l5.337 3.087c.189.108.18.288 0 .405l-5.022 2.898a.782.782 0 01-.693 0l-5.346-3.087c-.189-.099-.171-.279 0-.396l5.031-2.907zm52.434 30.267a.789.789 0 01.693 0l5.346 3.087c.18.108.171.288 0 .405l-5.022 2.898a.782.782 0 01-.693 0l-5.337-3.078c-.189-.108-.18-.288 0-.405l5.013-2.907zm-67.131-38.763a.789.789 0 01.693 0l5.337 3.078c.189.108.18.288 0 .405l-5.022 2.898a.782.782 0 01-.693 0l-5.346-3.087c-.189-.108-.171-.288 0-.405l5.031-2.889zm-22.716-13.113a.762.762 0 01.693 0l4.338 2.502c.189.108.18.288 0 .405l-5.022 2.898a.782.782 0 01-.693 0l-4.347-2.502c-.18-.108-.171-.288 0-.405l5.031-2.898zm-13.905-10.098l-4.338-2.502c-.189-.108-.18-.288 0-.405l5.022-2.898a.789.789 0 01.693 0l4.347 2.511c.18.108.171.288 0 .396l-5.022 2.907a.775.775 0 01-.702 0v-.009zm28.35-.126l-4.347-2.511c-.18-.108-.17-.288 0-.396l5.022-2.898a.762.762 0 01.693 0l4.338 2.511c.189.108.171.279 0 .396l-5.013 2.898a.755.755 0 01-.693 0zm14.4 24.867l-12.69-7.326c-.18-.108-.171-.288 0-.405l5.022-2.898a.789.789 0 01.693 0l12.69 7.335c.18.099.171.279 0 .396l-5.022 2.898a.757.757 0 01-.693-.045v.045zm-35.712-21.033a.782.782 0 01-.693 0l-4.338-2.502c-.189-.108-.18-.288 0-.405l5.022-2.898a.762.762 0 01.693 0l4.347 2.502c.18.108.171.288 0 .405l-5.031 2.898zm6.48-4.131l-4.338-2.502c-.189-.108-.179-.288 0-.405l5.022-2.898a.789.789 0 01.693 0l4.347 2.511c.18.108.171.288 0 .396l-5.022 2.907a.778.778 0 01-.702-.054v.045zm35.577 28.8l-4.338-2.511c-.189-.108-.171-.279 0-.396l5.022-2.898a.762.762 0 01.693 0l4.365 2.502c.189.108.171.279 0 .396l-5.022 2.898a.757.757 0 01-.765-.009l.045.018zm-28.026-16.596a.782.782 0 01-.693 0l-4.347-2.502c-.18-.108-.171-.288 0-.405l5.022-2.898a.789.789 0 01.693 0l4.338 2.511c.189.108.18.288 0 .396l-5.013 2.898zm59.76 34.893l-4.338-2.502c-.189-.108-.18-.288 0-.405l5.022-2.898a.789.789 0 01.693 0l4.347 2.502c.18.108.171.288 0 .405l-5.022 2.898a.775.775 0 01-.702 0zm-6.345-3.663l-4.347-2.502c-.18-.108-.171-.288 0-.405l5.013-2.898a.762.762 0 01.693 0l4.347 2.502c.18.108.171.288 0 .405l-5.022 2.898a.776.776 0 01-.684 0zm12.69 7.326l-4.338-2.502c-.189-.108-.18-.288 0-.405l5.013-2.898a.789.789 0 01.693 0l4.347 2.502c.18.108.171.288 0 .405l-5.022 2.898a.755.755 0 01-.693 0zm-25.38-14.652l-4.347-2.502c-.18-.108-.171-.288 0-.405l5.022-2.898a.789.789 0 01.693 0l4.338 2.511c.189.108.18.288 0 .396l-5.022 2.898a.75.75 0 01-.684 0zm6.3 3.663l-4.347-2.502c-.18-.108-.171-.288 0-.405l5.103-2.898a.762.762 0 01.693 0l4.338 2.502c.189.108.18.288 0 .396l-5.022 2.907a.775.775 0 01-.72 0h-.045zm-12.69-7.326l-4.347-2.511c-.18-.099-.171-.279 0-.396l5.022-2.898a.762.762 0 01.693 0l4.41 2.457c.189.108.171.288 0 .396l-5.013 2.898a.76.76 0 01-.72.054h-.045zm-29.034-54.207a.755.755 0 01-.693 0l-4.347-2.511c-.18-.099-.171-.279 0-.396l1.332-.774a.789.789 0 01.693 0l4.347 2.502c.18.108.171.288 0 .405l-1.332.774zm31.221 20.16a.755.755 0 01-.693 0l-4.338-2.502c-.189-.108-.18-.288 0-.405l5.022-2.898a.789.789 0 01.693 0l4.347 2.502c.18.108.171.288 0 .405l-5.031 2.898zm-12.69-7.326a.782.782 0 01-.693 0l-4.347-2.502c-.18-.108-.171-.288 0-.405l5.022-2.898a.762.762 0 01.693 0l4.374 2.502c.189.108.18.288 0 .405l-5.049 2.898zm20.439 11.799a.782.782 0 01-.693 0l-4.338-2.511c-.189-.108-.18-.288 0-.396l5.022-2.907a.789.789 0 01.693 0l4.347 2.502c.18.108.171.288 0 .405l-5.031 2.907zm-14.094-8.1a.782.782 0 01-.693 0l-4.347-2.502c-.18-.108-.171-.288 0-.405l5.022-2.898a.789.789 0 01.693 0l4.338 2.502c.189.108.18.288 0 .405l-5.013 2.898zm26.829 15.426a.755.755 0 01-.693 0l-4.338-2.511c-.189-.108-.171-.288 0-.396l5.013-2.898a.762.762 0 01.693 0l4.347 2.511c.18.099.171.279 0 .396l-5.022 2.898zm-6.345-3.663a.782.782 0 01-.693 0l-4.338-2.511c-.189-.108-.18-.288 0-.396l5.013-2.898a.762.762 0 01.693 0l4.347 2.511c.18.099.171.279 0 .396l-5.022 2.898zm-32.625-20.961a.782.782 0 01-.693 0l-4.347-2.502c-.18-.108-.171-.288 0-.405l1.341-.774a.789.789 0 01.693 0l4.338 2.502c.189.108.171.288 0 .405l-1.332.774zm-19.044-10.998a.736.736 0 01-.684 0l-4.347-2.511c-.18-.108-.171-.279 0-.396l1.332-.774a.762.762 0 01.693 0l4.347 2.502c.18.108.171.288 0 .405l-1.341.774zm-10.539 6.093a.782.782 0 01-.693 0l-4.347-2.511c-.18-.108-.171-.288 0-.396l5.022-2.907a.789.789 0 01.693 0l4.338 2.502c.189.108.171.288 0 .405l-5.013 2.907zm-15.867 16.101l-4.347-2.511c-.18-.099-.171-.279 0-.396l5.022-2.898a.789.789 0 01.693 0l4.338 2.511c.189.108.18.288 0 .396l-5.022 2.898a.753.753 0 01-.684 0zm39.105-14.859a.782.782 0 01-.693 0l-4.347-2.502c-.18-.108-.171-.288 0-.405l1.341-.774a.789.789 0 01.693 0l4.338 2.502c.18.108.171.288 0 .405l-1.332.774zm51.66 31.95a.755.755 0 01-.693 0l-4.338-2.511c-.18-.108-.171-.279 0-.396l5.022-2.898a.762.762 0 01.693 0l4.338 2.511c.18.108.171.279 0 .396l-5.022 2.898z" fill="#455A64"/><path d="M212.066 318.51l-47.52-27.441-29.25 16.884 47.529 27.441 29.241-16.884z" fill="#263238"/><path d="M317.699 180.234L176.075 98.469c-2.763-1.602-5.031-.288-5.031 2.907v109.683a5.19 5.19 0 002.34 4.05l145.215 83.844c1.287.738 2.34.135 2.34-1.35V185.841a7.19 7.19 0 00-3.24-5.607z" fill="#F5F5F5"/><path d="M170.999 104.004v-2.628c0-3.195 2.268-4.5 5.031-2.907l141.669 81.765a7.19 7.19 0 013.24 5.607v4.707l-149.94-86.544z" fill="#46D743"/><path d="M192.132 109.989c.506.329.927.773 1.228 1.295.302.522.477 1.108.509 1.711 0 1.107-.774 1.557-1.737.999a3.81 3.81 0 01-1.728-2.997c0-1.107.774-1.557 1.728-1.008zm-6.876-3.969a3.831 3.831 0 011.728 3.006c0 1.107-.774 1.548-1.728.999a3.843 3.843 0 01-1.737-3.006c0-1.107.774-1.557 1.737-.999zm-6.886-3.978a3.862 3.862 0 011.737 3.006c0 1.107-.783 1.557-1.737.999a3.837 3.837 0 01-1.737-2.997c0-1.107.783-1.557 1.737-1.008z" fill="#fff"/><path d="M285.968 244.248l5.511-3.181 13.495 23.375-5.511 3.181-13.495-23.375z" fill="#37474F"/><path d="M285.958 244.241l2.751-1.588 13.495 23.375-2.751 1.588-13.495-23.375z" fill="#263238"/><path d="M319.77 310.086c2.511 4.365 14.4-2.565 11.898-6.867l-31.005-48.357a.601.601 0 00-.81-.198l-6.228 3.6a.592.592 0 00-.234.792l26.379 51.03z" fill="#46D743"/><path opacity=".1" d="M319.769 310.086l-26.37-51.03a.593.593 0 01.234-.792l2.835-1.638 30.231 53.739c-2.754 1.359-5.796 1.692-6.93-.279z" fill="#000"/><path d="M228.6 196.245c0-.369 0-.729.054-1.089s0-.711.081-1.062c.081-.351 0-.468.072-.702.063-.612.153-1.215.252-1.8.045-.261.09-.531.144-.792.054-.261.099-.495.153-.738.153-.666.315-1.314.504-1.935.099-.297.189-.594.288-.9a.823.823 0 00.045-.135c.108-.288.207-.567.315-.837.108-.27.252-.63.396-.9.144-.27.198-.441.315-.657.065-.162.143-.319.234-.468.09-.189.189-.378.297-.558.108-.18.045-.09.072-.126.027-.036.189-.324.288-.486.099-.162.135-.207.198-.306a16.43 16.43 0 011.548-2.061l.288-.324.243-.252c.099-.108.207-.207.315-.315.282-.297.583-.577.9-.837.153-.135.315-.261.477-.378l.495-.36c.257-.189.524-.363.801-.522l.216-.135h.045l12.753-7.362.072-.045a16.004 16.004 0 018.01-2.025c4.176 0 8.892 1.368 13.887 4.248 17.154 9.9 31.068 34.002 31.068 53.82 0 9.9-3.456 16.83-9.045 20.088h-.054l-12.762 7.353h-.054l-.153.081c-.24.141-.486.271-.738.387-.306.153-.621.288-.9.414a7.509 7.509 0 01-.855.315l-.459.135c-.161.062-.327.11-.495.144-.166.05-.334.093-.504.126a2.584 2.584 0 01-.369.081 8.12 8.12 0 01-.675.117.437.437 0 01-.153 0c-.27.048-.54.084-.81.108-4.626.486-10.008-.819-15.768-4.14-17.163-9.9-31.077-34.011-31.077-53.82.045-.414.045-.882.045-1.35zm20.817-14.013a27.696 27.696 0 00-.981 7.56c0 17.478 12.789 39.6 27.9 48.366a27.006 27.006 0 007.083 2.943c.67-2.466 1-5.013.981-7.569 0-17.478-12.789-39.6-27.9-48.366a26.97 26.97 0 00-7.056-2.934h-.027z" fill="#46D743"/><path opacity=".1" d="M282.087 253.395l12.393-7.146c5.589-3.267 9.045-10.215 9.045-20.079 0-8.838-2.772-18.522-7.353-27.414L283.41 206.1c4.59 8.892 7.353 18.576 7.353 27.414 0 9.684-3.294 16.533-8.676 19.881z" fill="#000"/><path opacity=".4" d="M228.6 196.245c0-.369 0-.729.054-1.089s0-.711.081-1.062c.081-.351 0-.468.072-.702.063-.612.153-1.215.252-1.8.045-.261.09-.531.144-.792.054-.261.099-.495.153-.738.153-.666.315-1.314.504-1.935.099-.297.189-.594.288-.9a.792.792 0 00.045-.135c.108-.288.207-.567.315-.837.108-.27.252-.63.396-.9.144-.27.198-.441.315-.657.066-.162.144-.318.234-.468.09-.189.189-.378.297-.558.108-.18.045-.09.072-.126.027-.036.189-.324.288-.486.099-.162.135-.207.198-.306.462-.726.979-1.416 1.548-2.061l.288-.324.243-.252c.099-.108.207-.207.315-.315.283-.297.584-.577.9-.837.153-.135.315-.261.477-.378l.495-.36c.258-.188.525-.363.801-.522 5.643-3.429 13.5-3.024 22.239 2.007 17.163 9.9 31.077 34.002 31.077 53.82 0 10.035-3.6 17.046-9.315 20.232a8.087 8.087 0 01-.738.387c-.306.153-.621.288-.9.414a7.509 7.509 0 01-.855.315l-.459.135c-.16.062-.326.11-.495.144a4.82 4.82 0 01-.504.126 2.584 2.584 0 01-.369.081 8.12 8.12 0 01-.675.117.437.437 0 01-.153 0c-.27.048-.54.084-.81.108-4.626.486-10.008-.819-15.768-4.14-17.163-9.9-31.077-34.011-31.077-53.82.027-.45.027-.918.027-1.386zm34.2 49.779c3.852 2.223 7.56 3.393 10.728 3.393 5.949 0 8.685-4.059 9.9-8.316a27.996 27.996 0 00.981-7.569c0-17.478-12.789-39.6-27.9-48.366a26.914 26.914 0 00-7.083-2.934 15.659 15.659 0 00-3.6-.459c-9.837 0-10.89 11.106-10.89 15.885-.036 17.442 12.753 39.627 27.864 48.366z" fill="#fff"/><path opacity=".1" d="M234.9 197.658c0 17.478 12.78 39.6 27.9 48.366 3.852 2.223 7.56 3.393 10.728 3.393 5.949 0 8.685-4.059 9.9-8.316a27.006 27.006 0 01-7.083-2.943c-15.138-8.739-27.9-30.888-27.9-48.366a27.696 27.696 0 01.981-7.56 15.666 15.666 0 00-3.6-.459c-9.864.027-10.926 11.106-10.926 15.885z" fill="#000"/><path opacity=".7" d="M240.301 194.607c0 17.478 12.78 39.6 27.9 48.366 3.852 2.223 7.56 3.393 10.728 3.393.63.002 1.259-.05 1.881-.153a13.78 13.78 0 002.601-5.112c.67-2.467 1-5.013.981-7.569 0-17.478-12.789-39.6-27.9-48.366a26.914 26.914 0 00-7.083-2.934 15.659 15.659 0 00-3.6-.459c-.633-.002-1.266.05-1.89.153-3.114 3.663-3.618 9.54-3.618 12.681z" fill="#fff"/><path d="M218.547 176.4v19.926c0 1.494-1.053 2.097-2.34 1.35l-130.59-75.393a5.174 5.174 0 01-2.34-4.05V98.28c0-1.494 1.053-2.097 2.34-1.35l130.59 75.393a5.199 5.199 0 012.34 4.077z" fill="#E6E6E6"/><path d="M216.207 172.323l-23.256-13.419v25.326l23.256 13.419c1.287.747 2.34.144 2.34-1.35V176.4a5.197 5.197 0 00-2.34-4.077z" fill="#46D743"/><path d="M200.646 169.956c1.467-.846 3.321-.711 5.22.387a13.42 13.42 0 016.165 10.665 5.787 5.787 0 01-1.233 3.843l2.502 4.284a1.36 1.36 0 01-.495 1.8 1.35 1.35 0 01-1.845-.495l-2.475-4.284c-.267.05-.538.077-.81.081a6.293 6.293 0 01-3.132-.9 13.444 13.444 0 01-6.156-10.665c-.027-2.187.783-3.861 2.259-4.716zm5.22 13.05a2.05 2.05 0 003.465-1.998 10.793 10.793 0 00-4.815-8.325 3.647 3.647 0 00-1.8-.567 1.445 1.445 0 00-.756.18 2.642 2.642 0 00-.9 2.385 10.801 10.801 0 004.806 8.325z" fill="#fff"/></svg>