<svg width="50" height="50" fill="none" xmlns="http://www.w3.org/2000/svg"><path d="M40.979 10.456a.118.118 0 00-.06-.055 37.895 37.895 0 00-9.35-2.899.142.142 0 00-.15.071 26.37 26.37 0 00-1.165 2.391 34.988 34.988 0 00-10.502 0 24.194 24.194 0 00-1.182-2.39.148.148 0 00-.15-.072 37.787 37.787 0 00-9.35 2.9.133.133 0 00-.062.052C3.052 19.348 1.42 28.023 2.22 36.59a.158.158 0 00.06.108 38.1 38.1 0 0011.47 5.796.148.148 0 00.162-.053 27.205 27.205 0 002.346-3.816.146.146 0 00-.08-.202 25.097 25.097 0 01-3.583-1.707.147.147 0 01-.014-.245c.241-.18.479-.366.711-.557a.142.142 0 01.149-.02c7.518 3.43 15.657 3.43 23.086 0a.142.142 0 01.15.018c.233.192.471.379.714.56a.146.146 0 01.038.193.148.148 0 01-.051.05 23.553 23.553 0 01-3.585 1.706.145.145 0 00-.094.145c0 .02.006.04.016.06a30.553 30.553 0 002.344 3.813.146.146 0 00.162.054 37.972 37.972 0 0011.489-5.795.147.147 0 00.06-.106c.958-9.905-1.604-18.509-6.792-26.136zM17.382 31.374c-2.263 0-4.128-2.078-4.128-4.629 0-2.55 1.829-4.628 4.128-4.628 2.318 0 4.165 2.096 4.128 4.628 0 2.551-1.829 4.628-4.128 4.628zm15.264 0c-2.263 0-4.128-2.078-4.128-4.629 0-2.55 1.829-4.628 4.128-4.628 2.318 0 4.165 2.096 4.129 4.628 0 2.551-1.811 4.628-4.129 4.628z" fill="#fff"/></svg>