<svg version="1.0" xmlns="http://www.w3.org/2000/svg" width="682.667" height="682.667" viewBox="0 0 512 512"><g fill="#fff"><path d="M179.6 1.6c-13.1 3.2-27.7 13.7-34.1 24.8-1.6 2.7-4 7.8-5.4 11.5-2.5 6.5-2.5 7-2.9 40.8l-.4 34.3h-72l-2.9 2.9c-5.7 5.7-2.8 14.9 5.2 16.5 1.8.3 18.2.6 36.5.6H137v32H64.8l-2.9 2.9c-5.7 5.7-2.8 14.9 5.2 16.5 1.8.3 18.2.6 36.5.6H137v32H64.8l-2.9 2.9c-5.7 5.7-2.8 14.9 5.2 16.5 1.8.3 18.2.6 36.5.6H137v32H64.8l-2.9 2.9c-5.7 5.7-2.8 14.9 5.2 16.5 1.8.3 18.2.6 36.5.6H137v53.6l-5.6 1.2c-10.3 2.1-20.1 7.7-28.4 16.1-4.1 4.2-8.7 9.9-10.2 12.6-3.7 7-6.8 18.8-6.8 26.1 0 6.1 0 6.2-4 8.8-9.7 6.4-17.8 17.3-21.7 29.1-2 6.4-2.6 10-2.6 18-.1 10.8 1.1 16.1 5.9 26.1 4 8.3 16.8 21.1 25.4 25.2 13.3 6.5 6.6 6.3 161.8 6l140.7-.3 7.3-2.3c29.7-9.2 49.8-31.8 54.9-61.9 5.6-33.6-13.7-68.4-45.5-81.7-10-4.2-18.6-5.8-31.1-5.8h-11.4l-1.1-3.2c-2.8-8.1-12.2-25-18-32.2-8-10.2-19.8-20.4-31.2-27.1-10.8-6.4-14.9-6.9-19.5-2.4-5.5 5.5-3.2 12.9 5.4 17.3 17.9 9 34.3 26.9 42.4 46l3.2 7.8-7.2 4.1c-9.1 5.3-23.2 19.3-26.9 26.9-2.4 4.8-2.7 6-1.7 9.3 1.1 4.3 4.7 7 9 7 4.5 0 7.1-1.9 11.3-8.4 10.3-15.9 27.9-25.2 47.7-25.2 15.3.1 28.6 5.7 39.5 16.9 21.8 22 21.3 57-1 78.9-4.6 4.5-9.4 8.2-13.7 10.2-13.5 6.7-5.3 6.4-158.6 6.1l-138.8-.3-6-2.4c-7.1-2.9-16-11.2-19.3-18.2-9-18.6-1.2-40.8 17.6-50.3 2.8-1.4 5.7-3.6 6.4-4.8.8-1.5 1.2-6.6 1.3-13.8 0-10.3.3-12.1 2.7-17.2 3.7-7.9 9.8-14.2 17.7-18.1 8.7-4.2 20.4-5 29.5-1.8 11 3.9 13 2.9 19.7-10.2 2.8-5.5 6.8-12.4 8.9-15.2 8.3-11.2 21.6-22.3 34.8-28.9 8.5-4.3 10.5-11.4 4.7-17.2-3.2-3.2-8-3.1-15.2.4-19 9.2-35.8 24.9-46.8 43.7-2.1 3.6-4.2 6.5-4.7 6.5s-.7-62.4-.6-148.3l.3-148.2 3.1-6.5c5-10.4 12.6-16.8 23.1-19.5 4.8-1.3 16.6-1.5 72.3-1.5 55.7 0 67.5.2 72.3 1.5 10.5 2.7 18.1 9.1 23.1 19.5l3.1 6.5.5 128.5c.3 70.7.9 129.3 1.4 130.3 2.5 5.1 11.3 5.8 15.7 1.1 2-2.2 2.4-3.8 2.8-10.5l.3-7.9h33.3c18.3 0 34.6-.3 36.4-.6 8-1.6 10.9-10.8 5.2-16.5l-2.9-2.9H375v-32h33.4c18.3 0 34.7-.3 36.5-.6 8-1.6 10.9-10.8 5.2-16.5l-2.9-2.9H375v-32h33.4c18.3 0 34.7-.3 36.5-.6 8-1.6 10.9-10.8 5.2-16.5l-2.9-2.9H375v-32h33.4c18.3 0 34.7-.3 36.5-.6 8-1.6 10.9-10.8 5.2-16.5l-2.9-2.9H375V74h44.3c48.6 0 50.8.2 59.1 6 5.6 3.8 11.1 11.8 12.5 18 .7 2.9 1.1 52.3 1.1 142.6 0 152.6.4 143.2-6.5 152.8-4.4 6.2-4.8 11.4-1.1 15.1 7 7 14.9 2.9 22-11.4 5.7-11.2 5.6-6.7 5.6-157.2 0-89.7-.4-140.5-1-144-3.7-19.5-21.4-37.2-40.9-40.9-3.1-.6-24-1-50.1-1h-44.7l-1.6-8.2C369.3 23.6 352.4 6 331.3 1.5c-9.9-2.1-143-2-151.7.1z"/><path d="M41.1 55.1C22.4 58.8 4.6 76.8 1 95.9c-.6 3.5-1 54.5-1 144.5 0 152.8-.3 145.2 6.1 157.9 2 3.8 5.7 8.7 9.8 12.7 11.6 11.4 21.7 14 26.1 6.7 3.9-6.4 2.3-10.4-6.6-16.3-3-2-7.1-5.7-9-8.2-6.8-9-6.5.2-6.2-155.3l.3-140.4 2.4-5c3.2-6.3 9.3-12.4 15.6-15.6 4.9-2.4 5.4-2.4 36.5-2.7 17.3-.1 32.6-.5 33.8-.8 1.3-.2 3.5-1.7 4.8-3.1 4.3-4.6 2.7-12.1-3.3-15.2-2.6-1.3-62.4-1.4-69.2 0zM208.4 65c-3.2 1.3-6.4 5.9-6.4 9.1 0 1.8 1.1 4.1 2.9 6.1l2.9 3.3 47.6.3 47.5.3 3.3-3c2.7-2.4 3.3-3.6 3.3-7.1 0-3.5-.6-4.7-3.3-7.1L303 64l-46.3.1c-25.4 0-47.2.4-48.3.9zm0 52c-3.2 1.3-6.4 5.9-6.4 9.1 0 1.8 1.1 4.1 2.9 6.1l2.9 3.3 47.6.3 47.5.3 3.3-3c2.7-2.4 3.3-3.6 3.3-7.1 0-3.5-.6-4.7-3.3-7.1L303 116l-46.3.1c-25.4 0-47.2.4-48.3.9zm0 52c-3.2 1.3-6.4 5.9-6.4 9.1 0 1.8 1.1 4.1 2.9 6.1l2.9 3.3 47.6.3 47.5.3 3.3-3c2.7-2.4 3.3-3.6 3.3-7.1 0-3.5-.6-4.7-3.3-7.1L303 168l-46.3.1c-25.4 0-47.2.4-48.3.9zm0 52c-3.2 1.3-6.4 5.9-6.4 9.1 0 1.8 1.1 4.1 2.9 6.1l2.9 3.3 47.6.3 47.5.3 3.3-3c2.7-2.4 3.3-3.6 3.3-7.1 0-3.5-.6-4.7-3.3-7.1L303 220l-46.3.1c-25.4 0-47.2.4-48.3.9zm45.9 62.2c-1.2.6-2.9 2.6-3.8 4.5-3.8 8 3.4 16.1 11.9 13.3 4.2-1.4 6.6-4.8 6.6-9.5 0-7.2-7.9-11.6-14.7-8.3zM99.4 313.6c-9.7 3.5-17.5 14.4-17.8 24.8-.1 4.4.3 5.9 2.3 8 3.2 3.4 7.2 4.1 11.5 2.1 3.3-1.6 4.8-3.9 6-9.8.9-3.9 3.8-6.4 8.4-7.2 5.8-1 9.2-4.6 9.2-10 0-8.3-8.6-11.8-19.6-7.9zm296.4.7c-3.4 3.2-4.4 7.7-2.4 11.6 1.9 3.5 3.7 4.6 8.8 5.6 4.4.8 7.3 3.8 8.3 8.5 1 4.9 2.8 7.5 6.4 9 3.9 1.6 7.6.6 10.7-2.7 4.9-5.3 2-18.5-5.7-26.2-7.6-7.7-20.9-10.6-26.1-5.8zm-93.9 121.5c-5.5 4.9-3.6 14.1 3.5 16.5 9.6 3.2 16.9-9.1 9.7-16.4-4-3.9-8.9-4-13.2-.1z"/></g></svg>