<svg width="50" height="50" fill="none" xmlns="http://www.w3.org/2000/svg"><path d="M16.25 4.167h17.5c6.666 0 12.083 5.416 12.083 12.083v17.5a12.084 12.084 0 01-12.084 12.083h-17.5c-6.666 0-12.083-5.416-12.083-12.083v-17.5A12.083 12.083 0 0116.249 4.167zm-.417 4.166a7.5 7.5 0 00-7.5 7.5v18.334c0 4.145 3.354 7.5 7.5 7.5h18.333a7.5 7.5 0 007.5-7.5V15.833c0-4.146-3.354-7.5-7.5-7.5H15.833zm20.104 3.125a2.605 2.605 0 110 5.21 2.605 2.605 0 010-5.21zm-10.938 3.125a10.417 10.417 0 110 20.834 10.417 10.417 0 010-20.834zm0 4.167a6.25 6.25 0 100 12.5 6.25 6.25 0 000-12.5z" fill="#fff"/></svg>