<svg version="1.0" xmlns="http://www.w3.org/2000/svg" width="682.667" height="682.667" viewBox="0 0 512 512"><g fill="#fff"><path d="M67.2 35.5C51.7 38.9 38.8 52 35.5 67.7c-1.2 5.5-1.5 19.1-1.5 71.9v65.2l-7.7.4c-11.7.6-18.5 4.7-23.6 14.2l-2.2 4.1v236l2.2 4.1c1.2 2.2 4 5.7 6.2 7.7 7.9 7.1-3.9 6.7 178.2 6.7 117.9 0 164.5-.3 166.2-1.1 3.9-1.8 5-5 4.5-12.3-1.3-16.3-13.9-31.1-30.7-36.2-3.1-.9-9.8-1.4-20.9-1.4H290l.2-25.8.3-25.7h102l.5 42.5.5 42.5 2.8 4.8c3.1 5.2 9.5 10 15.7 11.7 2 .6 19.2 1 40.1 1 41.2 0 44-.4 51-6.7 2.2-2 5-5.5 6.2-7.7l2.2-4.1V367c0-88.3-.1-92.7-1.9-96-5-9.5-12.5-14.1-23.8-14.8l-7.8-.5v-90.6c0-75.2-.3-91.8-1.5-97.4-3.4-16-16.2-28.8-32.2-32.2-9.9-2.1-367.4-2.1-377.1 0zm377.9 17.6c5.4 2.5 10.5 7.4 13.1 12.7l2.3 4.7.3 92.7.2 92.8h-23.3c-18.3 0-24.3.3-27.8 1.5-10.7 3.7-16.9 12.9-16.9 25.2v7.3H205v-30.3c0-23.2-.3-31.5-1.4-35.7l-1.5-5.5 43.5-43.5c39.5-39.6 43.4-43.8 43.4-46.8 0-4.6-3.8-8.2-8.7-8.2-3.6 0-5.3 1.6-47.3 43.5-42.6 42.5-43.7 43.6-46.4 42.5-1.8-.6-25.3-1-69.2-1H51v-64.8c0-40.5.4-66.4 1.1-69.2 2-8.9 9-16.3 17.7-18.6 3.7-1 42.8-1.2 188.2-1.1 167 .2 183.8.3 187.1 1.8zM184.7 224.4l2.8 2.4v199.7l-85.2.3-85.3.2V227.8l2.9-2.9 2.9-2.9h159.1l2.8 2.4zm307.4 51.5l2.9 2.9V427h-85v-74.3c0-78.4-.1-76 4.5-78.5 1.3-.8 14-1.1 38.3-1.2h36.4l2.9 2.9zm-99.3 56.8l.2 25.3H205v-51l93.8.2 93.7.3.3 25.2zm-171 68.5l.2 25.8h-17v-52.1l8.3.3 8.2.3.3 25.7zm51.2-.2v26h-34v-52h34v26zm-85 47c0 5.8-2.2 10.4-5.6 11.8-2.2.9-22.5 1.2-81.6 1l-78.7-.3-2.3-2.2c-1.6-1.7-2.3-3.8-2.6-8.3l-.4-6H188v4zm138-1.9c5.5 2.5 9.6 6.2 12.1 11.2l1.9 3.7H203.2l.9-3.8c.5-2 .9-5.8.9-8.5V444h58.3c56.4 0 58.3.1 62.7 2.1zm168.8 3.9c-.3 4.5-1 6.6-2.6 8.3-2.2 2.2-2.7 2.2-37 2.5-19.1.2-36.2 0-38-.3-5.2-1-7.2-3.9-7.2-10.7V444h85.2l-.4 6z"/><path d="M235.3 69.5c-5.1 2.2-6.1 8.9-2 13.2 2 2.2 2.6 2.3 22.7 2.3 20.1 0 20.7-.1 22.7-2.3 4.2-4.4 3.1-11.1-2.2-13.3-4.8-2-36.6-1.9-41.2.1zm49 94.8c-42.7 42.7-44.3 44.4-44.3 48 0 4.8 3.8 8.7 8.4 8.7 2.7 0 8.1-5.1 47.8-44.8 40.9-40.8 44.8-45 44.8-48 0-4.6-3.8-8.2-8.7-8.2-3.6 0-5.3 1.6-48 44.3zM91.5 307.9c-5.2 3.3-39.3 38.4-40 41.2-.8 3.1 1.5 8.3 4 9.3.9.3 3.1.6 4.8.6 2.7 0 5.6-2.5 22.4-19.2l19.3-19.2v-6.2c0-5.5-.2-6.2-2.5-7.2-3.5-1.6-4.5-1.5-8 .7zm52-.5c-4 1.8-39.1 37.3-40.4 40.8-2.1 5.5 1.8 10.7 7.9 10.8 3.3 0 5-1.5 23.7-20.3 11.1-11.1 20.3-21.1 20.4-22.2.6-4.2-1.1-7.6-4.6-9.1-4-1.6-3.3-1.7-7 0zm319 22.4c-1.1.2-8.4 6.7-16.2 14.5-13.1 13-14.3 14.5-14.3 17.8 0 4.8 3.3 7.9 8.5 7.9 3.6 0 4.7-.9 16.8-12.8 7.1-7 13.6-14.2 14.3-16 2.7-6.2-2.5-12.7-9.1-11.4zm-209.4-4.7c-8.3 3.3-5.8 15.9 3.2 15.9 3.4 0 6.7-2.6 8-6.2 1.1-3.2-1.4-7.9-4.9-9.4-1.8-.8-3.5-1.4-3.6-1.3-.2 0-1.4.5-2.7 1z"/></g></svg>