<svg version="1.0" xmlns="http://www.w3.org/2000/svg" width="682.667" height="682.667" viewBox="0 0 512 512"><g fill="#fff"><path d="M482 1.1c-24.8 2-46.9 5.7-70.5 11.6-86.6 21.7-162.4 68.8-218.2 135.4l-11.4 13.7-8.2-.5c-35.4-2.1-79.8-3.8-82.6-3.2-2.8.6-11.3 8.6-45.8 43.1-23.4 23.3-43.1 43.5-43.9 45-2.9 5.6-.7 14.1 4.8 18.1 1.8 1.4 16.4 4.9 47.5 11.7 24.7 5.3 46.1 10 47.6 10.4l2.7.6-10.6 21.3c-5.9 11.6-11.1 22.5-11.5 24.1-1.4 4.7.7 10.3 5.7 15.7l4.6 4.8-5.9 2.7c-3.7 1.8-8.4 5.3-12.9 9.8-6.8 6.8-8.3 9.4-39.7 66.6C4.2 485.7 1 492 1 496.1c0 8.2 6.8 14.9 15 14.9 2.6 0 17.5-7.5 62.5-31.6 32.4-17.4 61.1-33.1 63.6-35 6.8-5 14.6-15.2 17.2-22.6.2-.8 2.5.6 5.9 3.9 5.9 5.5 10.2 7.1 16.1 5.9 1.7-.4 12.2-5.8 23.2-12 16.6-9.4 20.1-11 20.7-9.7.4.9 5 21.8 10.3 46.6 5.3 24.7 10.4 46.3 11.3 48 2.6 4.5 10 7.9 15.4 7 4-.7 6.9-3.3 47-43.3 23.5-23.4 43.3-43.9 44-45.6 1-2.4.8-11.4-1-48-2.1-43.9-2.1-45-.2-46.3 36-25.2 74.7-68.9 101.3-114.4 8.1-13.8 21.4-41.3 27.5-56.9 18.3-46.2 30.1-98.5 30.5-134.7.2-10.8 0-12.4-1.9-14.9-5.2-7-9-7.9-27.4-6.3zm-1 31.3c0 8.5-7 47.3-11.6 64.6-3.4 12.6-13.4 43-14.3 43-.3 0-19.3-18.7-42.1-41.5-31.6-31.7-41.2-41.8-40.1-42.4.8-.5 8.2-3.2 16.5-5.9 24.9-8.3 52.3-14.4 78.6-17.6 6.3-.8 11.8-1.4 12.3-1.5.4-.1.7.6.7 1.3zm-89.2 87.9l50.4 50.4-4.6 9c-19.2 38.4-52.2 82.3-78.9 105.1-22.4 19.1-55.1 41.4-104.1 71.1l-16.9 10.3-17.6-17.6-17.6-17.6 25.6-25.7c14.2-14.2 26.2-26.8 26.8-28 2.6-5.1.2-14.9-4.4-17.9-4-2.6-8.6-3.4-12.9-2.3-3.5.9-8.2 5.2-30.1 27l-26 25.9-17.9-17.9c-11.7-11.7-17.7-18.4-17.3-19.4 1.2-3.3 25.7-43.4 35.2-57.7 22.5-34.1 38.4-53.9 60.2-75 26.3-25.7 55.9-47.2 88.3-64.4 5.8-3.1 10.7-5.6 11-5.6.3 0 23.2 22.7 50.8 50.3zm-256.1 69c13.3.7 24.4 1.5 24.7 1.8.3.3-1.8 4.1-4.8 8.5-6.9 10.3-22.7 36.2-30.2 49.1-3.2 5.7-6.4 10.3-7.2 10.3-1.9 0-71.6-15.1-72.2-15.7-.2-.2 11.9-12.7 27-27.8l27.5-27.5 5.5.1c3 0 16.4.6 29.7 1.2zM146 316.5l14.5 14.5-12 12-12 12-11-11-11-11 7.8-15.5c4.2-8.5 8-15.5 8.5-15.5.4 0 7.2 6.5 15.2 14.5zM322.6 381l1.5 30.4-27.5 27.5c-15.1 15.1-27.8 27.3-28 27-.3-.3-4-16.2-8.1-35.5-4.2-19.2-7.8-35.6-8-36.4-.3-1.1 4.7-4.6 17.3-12.2 9.7-5.9 25.1-15.5 34.2-21.2 9-5.8 16.6-10.4 16.7-10.2.2.2 1 13.9 1.9 30.6zm-125.9-13.8l14.3 14.3-14.6 8.2c-8 4.6-15.1 8.3-15.8 8.3-.6 0-6.1-5-12.1-11l-11-11 11.5-11.5c6.3-6.3 11.9-11.5 12.5-11.5.6 0 7.4 6.4 15.2 14.2zM119 382.1c5.5 2.5 8.6 5.3 11 9.9 4.5 8.9 3.3 18.4-3.4 25.5-3.3 3.5-11.1 8.2-37.9 22.5-18.7 10-34.1 18-34.3 17.7-.2-.2 8-15.6 18.2-34.3 19.3-35.1 22.6-39.9 29.6-42.1 5.3-1.7 11.9-1.4 16.8.8z"/><path d="M309 129.5c-22.5 5.1-41.8 23.4-47.4 45.2-2.1 7.9-2.1 23.7 0 31.7 3.8 14.9 16.7 31.3 30.5 38.9 26.3 14.6 61 7.7 78.5-15.7 14.2-18.8 17.8-40.8 10.2-61.4-4.8-12.8-17.2-26.8-29.1-32.9-13.3-6.7-29.1-8.9-42.7-5.8zm24.7 30.6c7.2 2.8 14.4 9.4 18 16.8 2.3 4.7 2.8 6.9 2.8 13.6 0 6.7-.5 8.9-2.8 13.6-3.6 7.5-10.7 14-18.3 16.9-11.7 4.4-26.7 1-34.8-8-6.7-7.4-8.1-11.3-8.1-22.5 0-9.3.2-10.4 3.1-15.5 8.1-14.3 24.9-20.5 40.1-14.9z"/></g></svg>