<svg version="1.0" xmlns="http://www.w3.org/2000/svg" width="682.667" height="682.667" viewBox="0 0 512 512"><g fill="#fff"><path d="M81.8 28.7c-19.1 19.8-40.6 42.9-41.7 45-.6 1.3-.9 3.4-.5 4.7 1.1 4.4 3.4 5.5 11.9 5.8l8 .3.5 32.8c.5 31.1.6 32.9 2.4 34.3 2.9 2.1 8 1.8 10.2-.7 1.8-2 1.9-4.1 1.9-39.4 0-35.4-.1-37.4-1.9-39.4-1.1-1.2-3.2-2.5-4.8-2.9-2.8-.7-2.7-.8 11.4-15.9L93.3 38l9.7 10.3C121.1 67.6 122.3 69 120.7 69c-2.9 0-6.5 2.2-7.6 4.7-.8 1.7-1.1 29.5-1.1 95.8 0 52.5-.4 93.5-.9 93.5s-4.3 2.3-8.5 5c-8.4 5.5-19.8 16.3-24.2 23l-2.9 4.4-.5-61.1c-.5-58.3-.6-61.2-2.4-63.2-2.5-2.7-8.6-2.9-10.9-.3-1.5 1.7-1.7 9.5-1.9 86.6l-.3 84.8-6.5 2.2c-12.4 4.2-20.9 9.5-30 18.6C6.5 379.6-1 398.7.3 421c1.2 18.8 8.3 34.6 21.7 48.1 9.6 9.7 18.4 15.3 30.5 19.6l8 2.8 124.7.3c124.1.2 124.8.2 126.8-1.8 3-3 2.7-8.3-.6-10.9-2.7-2.1-2.8-2.1-123.3-2.1-104.3 0-121.5-.2-126.6-1.5-22.2-5.6-40.4-24.3-45-46.1-6.9-32.6 13.7-64.8 46.2-72 4.1-.9 8.3-2.4 9.3-3.4 1.3-1.3 2-4.2 2.5-10.1 1.4-15.7 6-29.2 13.9-41 8-12 22-23.7 35.3-29.5 14.8-6.6 36.2-8.3 51.8-4.3 17.1 4.4 18.4 3.9 21-7.7 7.1-32.1 31.8-59 63-68.7 23.8-7.4 47.8-5.6 70 5.3 21.5 10.5 37.6 27.9 46.4 50 3 7.8 6.1 20.7 6.1 25.9 0 4.2 2 8.1 4.4 8.6 1.2.2 8 .6 15.1.9 27.7 1.1 49.7 10.6 68.1 29.7 16.4 17 25.6 37.9 27.1 61.5 2.9 47.5-30.3 90.8-77 100.5-8.1 1.6-13.8 1.9-46.9 1.9h-37.7l-2.7 2.3c-3.6 3.1-3.8 8.2-.4 10.9 2.3 1.9 4.2 1.9 44.4 1.6 39-.4 42.7-.6 49.6-2.5 27-7.5 47.9-21.4 63.3-41.9 28.9-38.5 30.2-89.4 3.2-130-9.1-13.6-25.6-28.7-38.7-35.5L450 280v-12.9c0-11.5-.2-13.1-2.1-15.5-2.6-3.3-7.9-3.6-10.9-.6-1.7 1.7-2 3.3-2 12 0 5.5-.4 10-.9 10-.6 0-4.7-.9-9.3-2-4.6-1.1-12.7-2.3-18-2.6l-9.8-.7V214c0-50-.1-53.9-1.8-56-.9-1.2-3.1-2.5-4.9-2.8l-3.1-.7 14.4-15 14.4-15 14.4 15 14.4 15-3.2.8c-6.7 1.7-6.6 1.1-6.6 39.6 0 33.6.1 34.8 2 36.9 3 3.2 8.2 3 10.9-.4 2-2.6 2.1-3.8 2.1-32V170h8c6.9 0 8.2-.3 10-2.2 3.4-3.7 2.6-7.1-3.2-13.6-17.2-19.1-44.6-47.4-46.5-47.9-1.3-.3-3.3-.3-4.5.1-2 .4-25.2 24.4-45.5 46.8-7 7.7-7.9 10.9-4 14.6 2 1.9 3.5 2.2 10 2.2h7.7v56.2l-4.2-6.2c-5.8-8.7-17.8-20.6-27.5-27.4l-8.3-5.8V96h7.6c8.7 0 10.7-.8 12.3-4.9 1-2.3 1-3.4-.1-5.4-1-1.9-33.9-37.6-47.5-51.4-3-3.1-8.6-3.1-11.6 0-13.6 13.8-46.5 49.5-47.5 51.4-1.1 2-1.1 3.1-.1 5.4 1.6 4.1 3.6 4.9 12.3 4.9h7.6v77.8l-4.7.7c-7.8 1.2-21 5.3-28.3 9l-7 3.4V149h7.9c7.4 0 8.1-.2 10-2.6 4.3-5.4 3.9-6-22.9-34.5-13.7-14.7-25.9-26.9-27-27.2-1.1-.3-2.9-.3-4 0s-13.3 12.5-27 27.1c-21.8 23.1-25 26.9-25 29.7 0 5.5 3.3 7.5 12.3 7.5h7.7v103h-11.2c-9.7 0-20.2 1.4-26.9 3.5-1.8.6-1.9-2-1.9-85.4V84h7.4c4.1 0 8.2-.3 9.1-.6 2.6-1 4.6-5.9 3.6-8.8-.6-1.3-12.1-14.2-25.6-28.5-29.8-31.6-27.1-30.4-39.7-17.4zm251.3 47.5c3.5 4.1 3.8 4.8 2.1 4.8-3.4 0-5.2 1.1-6.7 4.1-1.3 2.3-1.5 10.4-1.5 49 0 43.5-.1 46.1-1.7 45.4-4.8-1.9-20.7-5.4-27.5-6l-7.8-.7v-42.5c0-46.5-.1-47.6-5.8-48.9-1.5-.3-3.1-.7-3.5-.8-.5-.1 5.6-7 13.5-15.4l14.3-15.3 10.2 10.8c5.7 5.9 12.1 12.9 14.4 15.5zm-117.4 42.1c14.1 15.2 14.1 15.2 11.2 15.8-1.6.4-3.9 1.5-4.9 2.4-1.9 1.7-2 3.3-2 30.8v29l-8.5 8.5c-12.6 12.5-21.1 26-27 43.1l-2.4 6.6v-57.6c-.1-53.7-.2-57.8-1.9-59.9-.9-1.2-3.2-2.5-4.9-2.8l-3.1-.7 14.1-15.2c7.8-8.3 14.4-15.1 14.7-15.1.3 0 6.9 6.8 14.7 15.1z"/><path d="M179.3 328.1c-15 5.8-21.6 23.2-13.9 36.4 3.5 5.9 6.3 7.7 22 14 17 6.8 18.8 7.7 22 11.5 3.2 3.9 3.3 7.6.3 12-2.9 4.5-7.4 6.9-13.6 7.7-7.1.8-17.7-2.7-23.4-7.8-6.2-5.4-8.9-5.8-12.7-2.1-1.6 1.7-3 4-3 5.1 0 3.2 7.2 10.4 13.9 13.9 17.5 9.4 37.5 7.3 48.6-5 9.7-10.8 10-23.6.8-33.8-5.7-6.4-8.2-7.8-24.8-14.5-14.9-5.9-18.5-8.5-18.5-13.4 0-3.4 3.1-7.6 7-9.6 6.1-3.2 18.1-1.3 26.2 4 4.7 3.1 8.8 3.2 11.6.2 4.4-4.7 2.3-9.8-6.1-14.5-11.2-6.4-26.1-8.1-36.4-4.1zm63.8-.2c-1.1 1.1-2.3 3.5-2.6 5.3-.3 1.8-.5 22.1-.3 45l.3 41.7 2.3 2.3c2.2 2.2 2.8 2.3 22.8 2.3h20.6l2.4-2.8c3-3.5 3-5.9 0-9.4l-2.4-2.8-15.1-.3-15.1-.4v-25.6l14.1-.4c13.4-.3 14.2-.4 16-2.7 2.6-3.2 2.4-7.3-.4-9.9-2.2-2-3.3-2.2-16-2.2H256v-27h14.4c7.9 0 15.2-.3 16.1-.6 2.4-1 4.6-6 3.9-8.9-1.3-5.1-3.1-5.5-25.1-5.5-18.8 0-20.4.1-22.2 1.9zm89.9 0c-21.7 6.9-36.4 28.5-34.6 50.6 3.5 42.9 54.4 61.8 84.6 31.3 15.2-15.3 18.4-38.2 8.3-58.3-5.4-10.5-18.6-20.9-30.8-24.1-7.1-1.9-20.8-1.7-27.5.5zm29.5 16.1c6.4 3.1 13.4 10.1 16.5 16.5 3.5 7.3 4 19 .9 27-3.1 8.2-12.2 17.4-19.9 20.1-17 5.8-35.4-1.4-43-16.9-6.7-13.7-4.6-27.8 5.8-38.7 8-8.5 14.6-11.2 26.2-10.7 6.5.2 9.7.9 13.5 2.7z"/></g></svg>