<svg version="1.0" xmlns="http://www.w3.org/2000/svg" width="682.667" height="682.667" viewBox="0 0 512 512"><g fill="#fff"><path d="M234.5 1c-28.5 3-52.1 9.8-78 22.5-43.7 21.4-80.6 58.3-102 102-14.1 28.9-21.2 55.9-23.1 87.5l-.7 12.4 2.9-1.9c6.5-4.3 12.2-7 19.8-9.6l8.1-2.7.8-6.3c1.7-13.1 5.9-32.3 9.3-42.2 22-63.6 73.9-111.1 138.9-127.1 15.6-3.8 26.6-5 45.5-5s29.9 1.2 45.5 5c47.8 11.8 89.7 41.2 116.8 81.9 7.4 11.2 17.4 31.7 22.1 45.2 3.4 9.9 7.6 29.1 9.3 42.2l.8 6.3 8.1 2.7c7.6 2.6 13.3 5.3 19.8 9.6l2.9 1.9-.7-12.4c-2.8-47.7-20.1-92.7-49.9-129.5-7.8-9.7-24.6-26.4-34.2-34.1-30-24-66.1-40-105-46.5-13.6-2.3-44.1-3.3-57-1.9z"/><path d="M127.1 211.1c-17.2 3.4-31.8 18.2-35.1 35.8-1.4 7.2-1.4 131 0 138.2 3.5 18.6 18.4 33 37.4 36.1 23.1 3.8 46.1-12.6 50.6-36.1 1.4-7.2 1.4-131 0-138.2-4.7-24.4-28.5-40.6-52.9-35.8zm240 0c-17.2 3.4-31.8 18.2-35.1 35.8-1.4 7.2-1.4 131 0 138.2 2.6 13.7 12.2 26.3 24.5 32 8.6 4.1 18.8 5.7 26.3 4.1 3-.6 5.7-1.1 5.8-.9.2.1-1.1 3.1-2.7 6.5-5.6 11.6-18.2 21.5-30.7 24.1-3.1.6-16 1.1-31 1.1h-25.7l-3-5.7c-8.7-16.7-27.8-26.5-45.9-23.5-24.7 4.1-41.8 27-37.8 50.8 3.3 19.7 18 34.4 37.8 37.6 18 3 37.2-6.8 45.9-23.4l2.9-5.6 30.6-.5c32.1-.4 34-.7 46-5.7 17.2-7.3 32.8-22.9 40-40 5.7-13.5 5.4-8.8 5.7-99.3.3-55.4 0-85.8-.7-89.5-4.5-24.6-28.4-40.9-52.9-36.1zm-312 34.6c-10.6 5.2-20.5 18.2-23 30.1-1.5 7.1-1.5 73.3 0 80.4 2.9 13.6 15.7 28.7 27.4 32.2 2 .6 2 .1 2-72.4 0-40.2-.2-73-.6-73-.3 0-2.9 1.2-5.8 2.7zM450.5 316c0 72.5 0 73 2 72.4 11.7-3.5 24.5-18.6 27.4-32.2 1.5-7.1 1.5-73.3 0-80.4-2.9-13.6-15.7-28.7-27.4-32.2-2-.6-2-.1-2 72.4z"/></g></svg>