<svg width="29" height="29" fill="none" xmlns="http://www.w3.org/2000/svg"><path d="M22.259.08a2.856 2.856 0 00-1.025.532c-.13.113-.657.838-1.224 1.688l-1.002 1.495H3.199l-.328.136c-.674.277-1.116.725-1.36 1.37l-.124.335v7.703c0 7.114.005 7.726.096 8.014.198.64.748 1.218 1.405 1.49l.311.125 4.679.017 4.678.017-.3 1.257c-.17.691-.317 1.314-.334 1.377-.028.113-.068.124-.946.147-1.042.028-1.257.09-1.688.476-.334.305-.515.685-.55 1.189l-.033.413-1.014.017-1.02.017-.136.16a.584.584 0 000 .758l.136.159h15.656l.136-.159a.584.584 0 000-.759l-.136-.159-1.02-.017-1.014-.017-.034-.413c-.034-.504-.215-.884-.549-1.19-.43-.385-.646-.447-1.688-.475-.878-.023-.917-.034-.946-.148-.017-.062-.164-.685-.334-1.376l-.3-1.257 4.678-.017 4.679-.017.328-.13c.663-.272 1.24-.907 1.41-1.558.063-.238.074-1.71.074-7.97V5.636l-.124-.334c-.34-.901-1.184-1.507-2.102-1.507-.408 0-.39.05-.187-.51.238-.646.12-1.608-.277-2.175-.21-.311-.612-.68-.9-.821-.527-.272-1.236-.357-1.762-.21zm1.229 1.211c.26.136.504.403.623.674.113.272.096.833-.034 1.082-.102.204-3.795 4.747-3.937 4.849-.045.034-.328-.142-.889-.561-.447-.34-.81-.629-.804-.646.006-.022.787-1.195 1.739-2.61 1.739-2.6 1.863-2.76 2.277-2.89.249-.079.77-.028 1.025.102zM16.94 6.876L15.643 8.82l-.436.04c-1.892.17-3.127 1.399-3.37 3.358-.102.782.04 2.21.311 3.116.153.51.55.674.94.385.833-.606.879-.618 2.459-.623 1.172-.012 1.337-.023 1.67-.13 1.247-.42 2-1.705 1.802-3.088a9.21 9.21 0 01-.068-.555c-.006-.118.55-.826 2.543-3.268l2.549-3.126.855.017c.799.011.867.022 1.054.147.255.176.419.425.492.742.04.164.063 2.158.063 5.647v5.398h-8.921c-9.691 0-9.193-.017-9.402.306-.125.187-.08.515.085.68.118.118.124.118 9.164.147l9.046.028v2.944l-.16.267a1.165 1.165 0 01-.424.424l-.266.159H3.369l-.266-.159a1.176 1.176 0 01-.425-.424l-.158-.267V18.04l.945-.028c.861-.029.958-.04 1.065-.148.165-.164.21-.492.085-.68-.164-.248-.396-.305-1.303-.305h-.826l.017-5.568c.017-6.128-.006-5.692.368-6.066.323-.329-.125-.312 7.935-.317h7.431L16.94 6.876zm1.671 1.394l.765.572-.102.136c-.397.52-1.076 1.325-1.122 1.325-.028.006-.368-.227-.753-.51l-.697-.515.097-.153c.555-.85.957-1.422.997-1.422.028 0 .396.255.815.567zm-1.852 2.446c.957.714 1.02.765 1.087 1.009.187.657.023 1.365-.419 1.8-.413.409-.52.431-1.965.437-1.309.006-1.722.062-2.17.294-.09.046-.175.074-.186.057-.074-.068-.153-.782-.159-1.37-.006-1.037.193-1.666.697-2.198.43-.46 1.15-.76 1.83-.77.254-.006.305.022 1.285.741zM15.292 23.02c0 .017.142.617.312 1.337.17.719.311 1.33.311 1.364 0 .029-.572.052-1.416.052s-1.416-.023-1.416-.051c0-.035.142-.646.312-1.366.17-.719.311-1.32.311-1.336 0-.012.357-.023.793-.023.436 0 .793.011.793.023zm3.415 3.948c.272.073.437.323.437.657v.243h-9.3l.022-.311c.028-.352.141-.516.408-.59.255-.073 8.167-.073 8.433 0z" fill="#fff"/><path d="M6.19 16.964c-.561.243-.402 1.048.204 1.048.543 0 .781-.703.334-.98-.21-.136-.346-.153-.538-.068z" fill="#fff"/></svg>